<svg xmlns="http://www.w3.org/2000/svg" viewBox="0 0 477.33 992.04"><defs><style>.cls-1{opacity:0.75;}</style></defs><path d="M129.42,856.7c9,.45,18,.61,27,.62s17.94-.2,26.9-.48,17.89-.81,26.82-1.37c-9-.05-17.89-.18-26.83-.48s-17.86-.71-26.76-1.36-17.78-1.39-26.62-2.44c-6.94-.85-14-1.81-20.75-3.07-.44,2.29-.82,4.59-1.17,6.89C115.18,855.86,122.25,856.32,129.42,856.7Z"/><path d="M122.73,922.42c3.46-.07,6.9-.2,10.37-.36,6.79-.33,13.56-.84,20.3-1.45,13.49-1.24,26.92-2.9,40.28-4.88-13.49.76-27,1.19-40.44,1.19-6.74,0-13.46-.11-20.16-.4-5.3-.23-10.64-.6-15.83-1.13A81.9,81.9,0,0,0,122.73,922.42Z"/><path d="M469.8,543.06h-4.49c-3.63-14.59-25.58-102.81-49.66-200.7a7.51,7.51,0,0,0-1.93-14.78h-1.66c-.27-2.93-4.4-45.26-27.6-96a6.44,6.44,0,0,0,.12-10.67,7.38,7.38,0,0,0,3.18-6.86c-.19-1.82-4.95-44.35-38-102.68h4.79a5.54,5.54,0,0,0,0-11.07H338L253.64,42.41c-6.75-16.15-11.24-23.09-13.43-25.87-.36-5.51-.8-11-1.39-16.54-1.21,11.24-1.9,22.47-2.3,33.71l-97,66.63H122.82a5.54,5.54,0,1,0,0,11.07h4.79c-33.09,58.33-37.85,100.86-38,102.68A7.38,7.38,0,0,0,92.75,221a6.44,6.44,0,0,0,.12,10.67c-23.21,50.7-27.34,93-27.6,96H63.61a7.51,7.51,0,0,0-1.93,14.78C37.6,440.25,15.65,528.47,12,543.06H7.53a7.53,7.53,0,1,0,0,15.06H8.67C6.83,581,.48,705.49,70.76,785.32a7.34,7.34,0,0,0,4.2,2.36L88.7,853.29h-.45c0,9.33,1.29,15,8.64,25.4,0,.08,0,.16,0,.23,0,57.69,60.5,84.23,127.33,103.77v2a7.38,7.38,0,0,0,7.38,7.38h14.15a7.39,7.39,0,0,0,7.38-7.38v-2c34.61-10.12,67.49-22.13,91.18-39.36.49-.33,1-.68,1.44-1l1.51-1.17.52-.41c20.05-15.65,32.67-35.47,32.67-61.8v-.23c7.35-10.39,8.64-16.07,8.64-25.4H389l13.76-65.7a7.22,7.22,0,0,0,3.79-2.27c70.29-79.83,63.94-204.29,62.1-227.2h1.14a7.53,7.53,0,0,0,0-15.06ZM401,780.44s6.28-38.46,3.45-95.36c3.48-30.21,10.7-96.82,10.29-127h46.48C462.82,578,469.63,702.52,401,780.44Zm-106.19,76.4c8.95.28,17.92.52,26.89.48s18-.17,26.95-.62c7.48-.4,14.85-.89,22.4-1.81a155,155,0,0,1,2,24,68,68,0,0,1-1.58,14.73C368,903.28,359.09,910.8,348,916.11c-2.47.15-4.94.31-7.39.41-6.7.29-13.43.39-20.16.4-13.46,0-27-.43-40.44-1.19,13.36,2,26.78,3.64,40.27,4.88,4.22.38,8.45.7,12.68,1-27.37,7.45-59.45,4-64.11-11.64-.49-1.66-1-3.49-1.5-5.39q3.34.46,6.7.89c8.8,1.08,17.61,1.82,26.43,2.36s17.63.79,26.43.85,17.62-.12,26.4-.42c-8.79-.32-17.56-.74-26.32-1.43s-17.48-1.56-26.17-2.67-17.33-2.49-25.9-4.16c-3.07-.6-6.15-1.26-9.21-1.94-1.38-5.73-2.76-12.13-4.12-18.91,4.94.84,9.86,1.53,14.83,2.18,9.73,1.22,19.49,2.07,29.25,2.71s19.52.93,29.28,1,19.51-.06,29.24-.36c-9.74-.32-19.46-.75-29.16-1.48s-19.38-1.67-29-2.87-19.22-2.69-28.73-4.5c-5.69-1.11-11.43-2.33-17.06-3.71-1.35-7-2.66-14.34-3.92-21.61,69.58-.41,103-5.52,112.61-7.32.36,1.56.68,3.14,1,4.73-7.06,1.35-14.4,2.37-21.65,3.25-8.83,1-17.71,1.81-26.62,2.44s-17.83,1-26.76,1.36-17.88.43-26.83.48C276.93,856,285.87,856.52,294.83,856.84Zm-70.65,39.82c.11-6.5.22-12.56.31-17.75.34-10.39.56-17.32.56-17.32s.23,6.93.57,17.32c.09,5.19.2,11.25.31,17.75s.09,13.41.13,20.34-.09,13.85-.13,20.34-.22,12.56-.31,17.75c-.34,10.39-.57,17.32-.57,17.32s-.22-6.93-.56-17.32c-.09-5.19-.2-11.25-.31-17.75s-.09-13.41-.13-20.34S224.14,903.15,224.18,896.66Zm-.78-61q-5.27,0-10.26-.08v-3.36c3.5.12,7,.24,10.51.32ZM143,817.18v6.5l-13.22-.34V816Q135.42,816.55,143,817.18Zm62.53,3v4.88l-13.22-.24v-5C196.53,820,201,820.13,205.51,820.22Zm-20.84,4.5-6.75-.12-6.47-.17v-5.38q6.28.32,13.22.58Zm-20.85-.49-13.22-.35v-6.11q6.14.45,13.22.86ZM143,826.85v5.68c-5-.42-9.34-.86-13.22-1.28V825C134.16,825.7,138.56,826.29,143,826.85Zm7.62.92q6.61.75,13.22,1.39V834q-7.09-.4-13.22-.86Zm20.85,2c2.06.17,4.12.38,6.19.53,2.34.18,4.68.31,7,.47v4.14q-7-.24-13.22-.55Zm20.84,1.52q6.61.38,13.22.64v3.53q-6.87-.12-13.22-.3Zm20.85-6.13v-4.84c3.73,0,7.54.08,11.46.1l-.38,4.84C220.53,825.26,216.83,825.24,213.14,825.19ZM313.51,834v-4.38c4.41-.42,8.81-.92,13.21-1.46v5Q320.58,833.58,313.51,834Zm-41.7,1.5v-3.22c4.41-.16,8.82-.34,13.22-.58v3.5C280.81,835.31,276.39,835.41,271.81,835.49Zm20.85-4.28c2.46-.16,4.91-.29,7.37-.47,2-.13,3.9-.34,5.85-.49v4.14q-6.27.3-13.22.55Zm34.06-7q-6.6.24-13.21.43v-6q7.08-.4,13.21-.86Zm-20.84.61-6.13.14-7.09.12v-5.47q6.93-.27,13.22-.58Zm-20.85.38q-6.6.09-13.22.16v-5.16q6.85-.13,13.22-.33Zm-20.84.22q-5.31,0-10.62,0l-.38-5c3.76,0,7.42-.06,11-.1Zm0,7.06v3.1q-4.8.06-9.85.08l-.22-2.95C257.48,832.68,260.83,832.58,264.19,832.5Zm-9.35,9.71-.22-2.84c65-.32,99.35-4.85,111.56-6.9.32,1.16.61,2.37.92,3.55-9.79,1.75-43.69,6.78-112.11,7.13Zm79.51-9.68v-5.36c4.41-.61,8.82-1.25,13.22-1.95v6C343.69,831.67,339.31,832.11,334.35,832.53Zm0-8.51v-6.84q7.56-.63,13.22-1.22v7.54C343.16,823.72,338.76,823.91,334.35,824Zm-81.44-7.26-.47-6.25c13.12-.18,64.61-1.23,104-6.52q1.32,3.38,2.65,6.94C347.1,812.47,310.46,816.5,252.91,816.76Zm9.85-16.85c2.24-.3,5.43-.9,9.28-1.32s8.33-1.05,13.14-1.43l15.1-1.2,15.14-.67c4.82-.24,9.35-.13,13.22-.21s7.11.14,9.37.16l3.56.18-3.51.61c-2.24.3-5.43.9-9.28,1.32s-8.33,1.06-13.15,1.43l-15.1,1.2-15.13.67c-4.83.22-9.35.12-13.22.2s-7.11-.14-9.38-.16l-3.56-.17Zm106.92-19.47S339.54,753,238.66,753s-131,27.41-131,27.41C68.7,671.76,79.58,575.51,82,558.12H368.49L374,618.18c1.74,21.23,2.83,42.49,1,63.85,4.92-20.87,6.94-42.49,8.26-63.94l2.19-41.15A626.85,626.85,0,0,1,365.14,761.3a633.37,633.37,0,0,0,33.41-146.08C398.25,657,392.56,716.59,369.68,780.44ZM125.83,342.64h198a418.65,418.65,0,0,1,33.58,89,426.24,426.24,0,0,0-6.61-53.22,399.13,399.13,0,0,1,12.58,49.88c5.69,30.42,8.46,61.55,10.05,92.72,1.48-31.18,1.8-62.54-.91-94q-1.34-15.35-3.76-30.69a433.22,433.22,0,0,1,8.11,146.7h-.77c-5.44-4.17-43.83-30.85-137.39-30.85s-131.94,26.68-137.38,30.85h-.77C87.72,430.45,122.07,350.93,125.83,342.64Zm26.69-109.95H316.3a276.21,276.21,0,0,1,24.75,84.59,281.12,281.12,0,0,0-11.11-76.09,129.14,129.14,0,0,1,13.14,84.69s-27.68-14.75-104.42-14.75-104.41,14.75-104.41,14.75C125.08,276.31,147.27,240.35,152.52,232.69Zm16.54-121.28h129A385.15,385.15,0,0,1,324.32,211.5a389.74,389.74,0,0,0-10.61-87c6.47,18,15.32,52.12,10.07,95.3h-2.57c-7.24-4.23-31.59-15.71-82.55-15.71s-75.3,11.48-82.54,15.71h-2.58C146.29,160.08,166,117.6,169.06,111.41Zm77.75,429.92-.23-21.67c64.3,1.08,99.92,15.05,115.56,23.4H246.82Zm-16,0v1.73H115.35c15.86-8.36,51.8-22.36,115.71-23.4Zm153.41,1.73c.44-3.93.81-7.81,1.15-11.65a162.73,162.73,0,0,1,48.28,11.65ZM244.53,327.58l-.1-9c41.51.42,67.25,5.2,81.32,9Zm-11.42,0H151.82c14.27-3.84,40.19-8.64,81.38-9Zm117.11,0c0-.12.09-.23.12-.35.24-1.3.43-2.58.63-3.85a154.6,154.6,0,0,1,29,4.2ZM243.38,219.78l-.09-8.29c27.91.41,47,4.42,59,8.29Zm-9.12,0H175c12.08-3.88,31.26-7.91,59.35-8.29ZM127,327.23c0,.12.08.23.11.35H97.34a154.6,154.6,0,0,1,29-4.2C126.56,324.65,126.75,325.93,127,327.23ZM93.09,543.06H43.66a162.66,162.66,0,0,1,48.28-11.65Q92.44,537.17,93.09,543.06Zm358.3,0a174.2,174.2,0,0,0-60.09-18.52c2.12-19.61,10.84-119.43-22.4-181.9h39.22c23.52,95.65,44.85,181.41,49.59,200.42ZM403,327.58a143.36,143.36,0,0,0-42.79-10.9c.41-43.11-12.45-71.92-19.22-84h35.87c22.29,47.86,27.21,89,27.82,94.89Zm-71.75-107.8q.65-5.42,1-10.64c11.22.83,26.54,3.44,41.53,10.64Zm9.33-17.22c.14-46.35-13-80.82-17.38-91.15h18c34.62,59.56,39.21,103.45,39.21,103.45A118.77,118.77,0,0,0,340.54,202.56ZM160.9,111.41c-5.17,11.42-17.9,44.59-16.19,90.35-13.14,1-30.76,4.11-47.8,13.1,0,0,4.58-43.89,39.21-103.45Zm-15.8,97.73q.38,5.22,1,10.64H103.58C118.57,212.58,133.88,210,145.1,209.14Zm-44.6,23.55h43.23A135.25,135.25,0,0,0,125.39,316c-13.77.73-32.64,3.45-51,11.55H72.69C73.3,321.65,78.22,280.55,100.5,232.69Zm17.27,110C110.59,359.42,84.66,427.75,91.36,524c-15,1.13-38.82,5.34-65.42,19H19.62c4.73-19,26.07-104.77,49.59-200.42ZM16.09,558.12H74.54c-1.74,12.66-6.14,53.19-.4,107.66-5.56,67.33,2.16,114.66,2.16,114.66C7.7,702.52,14.51,578,16.09,558.12ZM113.78,802h-3.71l-2.16-14.16a7.36,7.36,0,0,0,4.7-1.9A53.28,53.28,0,0,1,122.5,780c-1.3,3.44-2.82,7.21-4.42,11.18C116.7,794.57,115.25,798.19,113.78,802Zm25.67-5.46c2.19.06,5.33,0,9.08.13s8.12.16,12.79.43l14.63.65,14.63.88c4.67.2,9,.69,12.77.9s6.85.65,9,.81l3.44.39-3.44.4c-2.19.16-5.32.54-9.08.67s-8.14.39-12.84.32l-14.72-.35-14.68-1.19c-4.68-.42-9-1.14-12.75-1.66s-6.79-1.22-8.95-1.61l-3.38-.74ZM180.54,771v-5.33a7.91,7.91,0,0,0-.17-1.55,404.92,404.92,0,0,1,49-3.63L228.51,771ZM297,764.13a7.22,7.22,0,0,0-.17,1.55V771H249.46l-.8-10.5A403.31,403.31,0,0,1,297,764.13Zm58.24,66.22v-6.41c1.85-.32,3.71-.61,5.56-.94-1.86,0-3.71.1-5.56.17v-8l5.16-.64c1.65,4.59,3.25,9.41,4.75,14.42C362.67,829.31,359.38,829.81,355.2,830.35ZM367.64,802h-4.09c-1.47-3.77-2.93-7.39-4.3-10.79-1.61-4-3.12-7.73-4.42-11.17a53.12,53.12,0,0,1,9.94,6,7.47,7.47,0,0,0,4.91,1.84h.13ZM331.45,100.34H242.1L242,90.22q-.15-10-.21-19.92c1.08,2.13,2.66,6.2,4.57,14,3.69,15.07,12.92,13.23,12.92,13.23,10.15-4.62,24.91-3.39,24.91-3.39s-13.84-8.61-26.45-41.52c-.54-1.41-1.06-2.71-1.58-4ZM249.06,40.25c2.71,5.82,4.8,12,7,17.91a132.86,132.86,0,0,0,7.6,17.33,69.39,69.39,0,0,0,5,8,36.32,36.32,0,0,0,6.3,7.1c-5.56-3.35-9.58-8.71-13.07-14.1a93.52,93.52,0,0,1-8.33-17.46c-2.13-6.08-4.1-12.06-6.34-18-1.1-3-2.29-5.93-3.62-8.81A35.45,35.45,0,0,0,238.92,24C243.62,28.42,246.31,34.51,249.06,40.25Zm-12.67-2c-.52,17.31-.48,34.63-.75,51.94l-.11,10.12H146Zm-143.57,815L79,787.27c.15-.06.31-.09.46-.16a7.38,7.38,0,0,0,4.13-7.86c-.09-.55-4.72-30-3.92-75a497.19,497.19,0,0,0,21,78.72,7.32,7.32,0,0,0,2.94,3.65L106.15,803a21.94,21.94,0,0,0,2.1,14A218.68,218.68,0,0,0,99,853.29Zm9.6,25.49a175.56,175.56,0,0,1,9-52.1c2.75-8.38,5.94-16.58,9.33-24.67s7.11-16,10.4-24.16c-2.79,8.87-6.07,17.56-9.25,26.27,39.75,5.25,91.36,6.24,103.52,6.4l-.49,6.24c-56.17-.23-92.5-4-105.52-5.69-.42,1.19-.84,2.38-1.25,3.57l4,.49v8l-5.26-.14c1.75.3,3.51.55,5.26.84v6.51c-3.42-.44-6.25-.85-8.49-1.21-.34,1.19-.67,2.38-1,3.58,13.4,2.14,47.65,6.36,110.46,6.65l-.3,3.79c-65.57-.33-99.57-4.93-111.07-6.88q-.9,3.6-1.68,7.22c11.48,2,45.25,6.69,112.17,7l-1.64,20.74c-6.71,1.76-13.64,3.24-20.5,4.57-9.5,1.81-19.1,3.26-28.73,4.5s-19.31,2.16-29,2.87-19.43,1.16-29.17,1.48c9.74.3,19.49.48,29.25.36s19.52-.44,29.28-1,19.51-1.49,29.25-2.71c6.39-.84,12.71-1.77,19.07-3l-1.42,18c-5.32,1.34-10.76,2.53-16.15,3.59-8.57,1.67-17.22,3-25.9,4.16s-17.42,2-26.18,2.67-17.53,1.11-26.32,1.43c8.79.3,17.59.49,26.4.42s17.63-.34,26.44-.85,17.63-1.28,26.42-2.36c4.94-.63,9.83-1.32,14.75-2.16L217,917.08c-38.7,5.77-73.73,18.79-94.23,5.37.74.86,1.46,1.74,2.23,2.58a111.32,111.32,0,0,0,20,16.54,217.86,217.86,0,0,0,22.67,13.16c-16.16-6.65-32-15.16-44.69-27.73a69.83,69.83,0,0,1-15.19-22A66.13,66.13,0,0,1,102.42,878.78ZM245.74,984.66h-3.41L242,932.45l-.72-55.32-.71-55.32c-.19-18.44-.6-36.88-1.87-55.32-1.26,18.44-1.67,36.88-1.86,55.32l-.72,55.32-.71,55.32L235,984.66h-3.41v-7.52h0V760.47c2.33,0,4.66-.06,7.07-.06s4.75,0,7.08.06V763h.19v76h-.19V977.14h0ZM378.36,853.29A217.71,217.71,0,0,0,369.08,817a21.36,21.36,0,0,0,2.27-12.68l2.77-18.1a7.2,7.2,0,0,0,2.51-3.31,498.51,498.51,0,0,0,21.05-78.83c.81,45.08-3.85,74.6-3.94,75.15a7.37,7.37,0,0,0,4.12,7.86,8.15,8.15,0,0,0,.83.29l-13.8,65.89Z"/><path d="M106.45,738.25c-2-9.48-4-20.58-6.24-32.45s-4.33-24.58-6-37.33c-1.81-12.74-3.14-25.53-3.84-37.57s-1-23.28-.81-32.93.63-17.7,1.18-23.31.81-8.85.81-8.85S90.93,569,90,574.56s-2,13.61-2.66,23.31a321.73,321.73,0,0,0-.41,33.21c.52,12.15,1.68,25.07,3.33,37.93,1.83,12.83,4.13,25.57,6.53,37.46s5.17,22.86,7.45,32.28,4.54,17.18,6,22.64,2.4,8.55,2.4,8.55-.59-3.17-1.64-8.73S108.32,747.75,106.45,738.25Z"/><path d="M105.57,514.59c.38,3.46.76,6.47,1.17,8.94.83,4.92,1.3,7.73,1.3,7.73s-.19-2.84-.52-7.82c-.25-2.47-.36-5.5-.45-9s-.25-7.36-.24-11.61c-.22-8.51.39-18.43,1-29s2-21.86,3.73-33.07,3.58-22.4,5.69-32.83,4.09-20.19,6.08-28.48,3.47-15.27,4.58-20.13l1.71-7.64s-.89,2.7-2.47,7.44-3.75,11.52-6,19.77-5,17.86-7.31,28.31-4.46,21.68-6.25,33c-1.51,11.34-2.65,22.73-3.23,33.44a275.7,275.7,0,0,0,.22,29.31C104.75,507.22,105.14,511.14,105.57,514.59Z"/><path d="M139.33,316.26s.23-1.22.64-3.35.93-5.16,1.58-8.8,1.53-7.84,2.31-12.36,1.82-9.32,2.93-14.08,2.05-9.58,3.18-14,2-8.66,3-12.2,1.68-6.58,2.21-8.67.8-3.31.8-3.31l-1.54,3c-.89,2-2.31,4.74-3.63,8.22s-2.93,7.52-4.25,12S144,272,142.86,276.81c-1,4.88-1.79,9.78-2.45,14.38s-.87,9-1.1,12.67-.12,6.82-.12,9S139.33,316.26,139.33,316.26Z"/><path d="M158.43,209l.55,4.34.23-4.37c.06-2.77.37-6.73.65-11.45s.87-10.21,1.4-16.08,1.44-12.11,2.5-18.3,2.1-12.39,3.4-18.15,2.44-11.15,3.74-15.71,2.18-8.42,3-11.07l1.16-4.21-1.9,3.94c-1.12,2.55-2.83,6.16-4.42,10.66s-3.46,9.78-5,15.57-2.83,12-4,18.33c-.9,6.32-1.58,12.68-2,18.64s-.31,11.57-.18,16.34S158.17,206.25,158.43,209Z"/><path d="M57.26,738c-1.35-3.45-2.83-7.35-4.35-11.64-3.25-8.51-6.28-18.69-9.57-29.55s-6-22.69-8.39-34.56-4.37-23.82-5.71-35.09c-1.19-11.29-2.37-21.85-2.69-30.95-.26-4.54-.42-8.71-.52-12.41s-.26-6.93-.21-9.59c-.05-5.33-.09-8.37-.09-8.37L25,574.17c-.21,2.66-.39,5.9-.52,9.61s-.32,7.91-.24,12.49c0,9.15.41,19.84,1.48,31.25S28.72,651,31,663c2.58,12,5.65,23.8,9,34.76s7.23,20.94,10.8,29.37c1.7,4.25,3.46,8.06,5.07,11.41s3,6.28,4.22,8.64C62.56,752,64,754.65,64,754.65L60.8,746.9C59.72,744.47,58.56,741.45,57.26,738Z"/><path d="M33.93,518.61c1.34-4.7,3.42-11.36,5.63-19.43s4.94-17.45,7.56-27.57,5.43-20.92,8.23-31.72c2.63-10.84,5.26-21.68,7.72-31.84s4.48-19.72,6.36-27.87,3.17-15,4.2-19.79,1.48-7.53,1.48-7.53l-2.24,7.34c-1.35,4.69-3.43,11.35-5.64,19.43s-4.94,17.44-7.55,27.57-5.43,20.92-8.23,31.71c-2.63,10.84-5.26,21.68-7.72,31.85s-4.48,19.71-6.36,27.87-3.17,15-4.2,19.79S31.68,526,31.68,526Z"/><path d="M83,311.09c.62-2,1.51-5,2.57-8.53s2.37-7.6,3.62-12,2.77-9.05,4.34-13.67,3-9.3,4.49-13.61,2.79-8.42,4.09-11.86S104.29,245,105,243s1.06-3.22,1.06-3.22l-1.77,2.9c-1,1.88-2.69,4.52-4.29,7.86s-3.56,7.2-5.28,11.5-3.42,8.94-5,13.62c-1.42,4.73-2.74,9.5-3.88,14s-1.81,8.78-2.45,12.42-.88,6.74-1.13,8.88-.26,3.39-.26,3.39Z"/><path d="M109.2,197.55c.75-2.11,1.81-5.14,3.08-8.76s2.87-7.79,4.43-12.29,3.44-9.24,5.39-13.94,3.74-9.46,5.66-13.82,3.58-8.52,5.23-12l3.78-8.48,1.41-3.25-2.09,2.86c-1.25,1.87-3.17,4.48-5.11,7.82s-4.27,7.21-6.39,11.56-4.22,9-6.23,13.8c-1.81,4.84-3.5,9.71-5,14.32s-2.43,9-3.29,12.79-1.29,7-1.67,9.19l-.44,3.51S108.43,199.67,109.2,197.55Z"/><path d="M186.55,191.73l11.51-9c4.69-3.8,10.39-8,16.33-12.59s12.42-9.39,19-14.07,13-9.47,19.2-13.75,11.92-8.39,17-11.7l12.1-8.2,4.58-3.14-5,2.46c-3.13,1.65-7.67,3.89-12.9,7s-11.38,6.57-17.72,10.72-13,8.72-19.62,13.4c-6.47,4.85-12.85,9.82-18.75,14.58s-11.13,9.54-15.62,13.6-8,7.68-10.57,10.15l-3.87,4Z"/><path d="M266.24,141.18c-3,1.76-6.51,3.74-10.09,6.18s-7.34,5.1-11.07,7.83c-3.6,2.88-7.16,5.82-10.45,8.63s-6.13,5.7-8.61,8.11-4.35,4.64-5.72,6.12l-2.06,2.42,2.58-1.85,6.69-5,9.34-7.12c3.36-2.66,7-5.42,10.68-8.13s7.21-5.63,10.65-8.18,6.54-5.11,9.32-7.14,4.95-3.94,6.56-5.15l2.46-2-2.88,1.35C271.85,138.2,269.22,139.41,266.24,141.18Z"/><path d="M166,306.33,181.66,298c6.43-3.51,14.1-7.27,22.21-11.5s16.88-8.5,25.69-12.68,17.57-8.46,25.91-12.22,16.08-7.38,22.82-10.23l16.23-7.11,6.16-2.71-6.43,2c-4.07,1.35-9.93,3.15-16.8,5.73s-14.93,5.54-23.38,9.14-17.39,7.63-26.26,11.79c-8.78,4.37-17.48,8.87-25.57,13.22s-15.42,8.82-21.7,12.62-11.36,7.24-14.94,9.59l-5.56,3.8Z"/><path d="M264.91,264.06c-3.18,1.43-7,2.91-10.87,4.81l-12.25,5.9-12,6.37c-3.83,2-7.28,4.19-10.3,5.9s-5.43,3.39-7.16,4.45l-2.66,1.79,3-1.09c1.88-.77,4.64-1.72,7.83-3.13s6.95-2.91,10.86-4.8l12.26-5.9,12-6.37c3.84-2,7.29-4.19,10.31-5.9s5.42-3.39,7.15-4.45l2.67-1.78-3,1.08C270.85,261.71,268.09,262.66,264.91,264.06Z"/><path d="M167.48,475.5c7.43-7.16,16.47-15.11,26.06-23.72s20.14-17.42,30.84-26,21.48-17.15,31.83-24.84,20-14.83,28.57-20.62,15.55-10.8,20.59-14.1l7.87-5.29L305,365.5c-5.22,3-12.73,7.28-21.44,12.88s-18.85,12.16-29.38,19.69-21.49,15.93-32.3,24.54c-10.63,8.81-21.07,17.86-30.64,26.57s-18.09,17.29-25.31,24.71-13,13.85-17,18.34l-6.22,7.15,6.79-6.61C153.72,488.51,160,482.6,167.48,475.5Z"/><path d="M272.31,405.78c-4.71,3.26-10.26,7-16,11.35s-11.72,9.05-17.69,13.83c-5.84,4.94-11.61,10-17,14.72s-10.09,9.5-14.2,13.5-7.32,7.55-9.63,10l-3.53,3.9,4.07-3.33L209,460.85l15-12.54c5.44-4.61,11.31-9.46,17.23-14.24s11.71-9.73,17.28-14.18l15.17-12.29,10.73-8.73,4-3.36-4.49,2.73C281.12,400,277,402.51,272.31,405.78Z"/><path d="M234.05,653.85c11.88-9.31,23.94-18.39,35.42-26.67s22.22-16,31.64-22.29,17.17-11.72,22.72-15.32l8.66-5.77-9.07,5.1c-5.72,3.33-14,8-23.55,14.09s-20.77,13.21-32.42,21.34-23.84,17.13-35.88,26.34C219.69,660.08,208,669.72,197.23,679s-20.44,18.34-28.65,26.18-14.81,14.64-19.44,19.37L142,732.07l7.71-7c4.85-4.5,11.94-10.75,20.43-18.26s18.59-16,29.38-25.19S222.1,663.08,234.05,653.85Z"/><path d="M303.76,635.94c-3.18,1.78-7.81,4.21-13.16,7.46s-11.65,7-18.17,11.28-13.42,9-20.26,13.81c-6.72,5-13.38,10-19.57,14.78s-11.72,9.58-16.5,13.62-8.57,7.63-11.28,10.08l-4.17,3.94,4.67-3.34,12.19-8.92,17.2-12.59c6.27-4.64,13-9.51,19.81-14.29S268,662,274.39,657.57l17.44-12.26,12.34-8.71,4.66-3.35Z"/></svg>