<svg xmlns="http://www.w3.org/2000/svg" viewBox="0 0 595.34 927.82"><defs><style>.cls-1{opacity:0.75;}</style></defs><path d="M366.58,0a10.71,10.71,0,0,0-1.92,4.63c-.26,1.56-.31,3.13-.48,4.69l-.84,9.4c-.6,6.26-1.11,12.52-1.61,18.79s-1,12.53-1.43,18.8-.85,12.54-1.27,18.81c-1.61,25.08-3.21,50.16-5,75.22s-3.64,50.12-5.75,75.14c-1,12.51-2.23,25-3.38,37.49l-2,18.7-2.27,18.62,7.23,1c.86-6.26,1.81-12.51,2.59-18.78l2.18-18.79,1.92-18.8,1.67-18.81c2.14-25.08,4.09-50.18,5.61-75.29s3.09-50.22,4.34-75.34c.3-6.28.62-12.56.84-18.85s.48-12.57.61-18.86.3-12.57.35-18.87l.1-9.44c0-1.57.08-3.14,0-4.72A10.6,10.6,0,0,0,366.58,0Z"/><rect x="400.52" y="285.31" width="76.23" height="7.31" transform="translate(133.4 716.43) rotate(-87.85)"/><path d="M427.08,45.47a231.08,231.08,0,0,0-5.51,34.07c-.64,5.7-1.27,11.4-1.85,17.1l-1.79,17.1L414.56,148,411,182.2q-3.66,34.22-7.72,68.36-2.06,17.07-4.32,34.09c-.8,5.66-1.47,11.36-2.37,17l-1.3,8.45-1.51,8.31,7.14,1.53,1.62-8.61,1.37-8.56c.94-5.7,1.64-11.4,2.48-17.1q2.28-17.1,4.28-34.21,4-34.22,7.6-68.47l3.53-34.26q1.77-17.13,3.33-34.28c1-11.44,1.87-22.9,2.55-34.37.33-5.74.71-11.47.64-17.24A109.12,109.12,0,0,0,427.08,45.47Z"/><path d="M556.66,744.47c-12-7.84-36.29-16.14-57.81-16.14h-.14c-7.91,0-14.72,1.16-20.26,3.43a2.43,2.43,0,0,1-3.11-3.31l27.14-56.2a2.46,2.46,0,0,1,2-1.36,2.38,2.38,0,0,1,2.19,1c3.47,5,11.6,16.56,35.47,18.42a102.47,102.47,0,0,0,22.18-.79c7.65-.95,13.18-1.63,17.54,4.19a2.43,2.43,0,0,1-.73,3.57c-6,3.45-13.45,14.67-16.71,20.94-2.86,5.48-6.5,16.68-4.13,23.36a2.45,2.45,0,0,1-2.3,3.26A2.49,2.49,0,0,1,556.66,744.47Zm8.26-50.09a107.27,107.27,0,0,1-23.15.81c-20.3-1.57-30.4-9.5-36.64-17.22l-22.91,47.42a66.23,66.23,0,0,1,16.5-1.94h.14c20,0,42.27,6.89,55.82,14.19-.36-8,3.09-17.18,5.42-21.64s9.07-15.59,16-21.15C573.94,693.37,571,693.63,564.92,694.38Z"/><path d="M477.53,729.51l21.18-3.62h0s10.51-19.53,2.13-44.67Z"/><path d="M565.39,691.87c-5,10.24-18.76,32.36-55.5,24.44,26.59-6.69,39.91-8.78,50.71-23.87Z"/><path d="M554.05,693a39.75,39.75,0,0,1-11,7.24,62.49,62.49,0,0,1-12.49,4l-3.23.65-3.27.51c-1.08.21-2.19.28-3.29.42s-2.19.27-3.3.35c-4.41.46-8.86.56-13.36.86a73.91,73.91,0,0,0,13.46,1,68.45,68.45,0,0,0,13.51-1.45,48.24,48.24,0,0,0,12.82-4.68A28.84,28.84,0,0,0,554.05,693Z"/><path d="M566.07,709a17.86,17.86,0,0,0-7.42,3.1,37,37,0,0,0-6,5,51.16,51.16,0,0,0-5,5.85,42,42,0,0,0-4,6.55c2-1.64,3.85-3.34,5.7-5s3.69-3.35,5.55-5,3.74-3.16,5.67-4.58a29.23,29.23,0,0,1,6-3.55Z"/><path d="M484.36,750.21a3.65,3.65,0,0,0,.22-7.3l-67.66-4.13a3.66,3.66,0,0,0-.45,7.3l67.67,4.12Z"/><path d="M484.65,511.47a3.14,3.14,0,0,1-1.78-2.5l-1.09-9.76a3.14,3.14,0,0,1,1.66-3.13L573.84,448a3.17,3.17,0,0,1,4.25,1.28h0a3.18,3.18,0,0,1-1.06,4.16l-89.31,57.83a3.13,3.13,0,0,1-1.71.51A3.24,3.24,0,0,1,484.65,511.47Zm.8-12.33,1,8.62,78.87-51.08Z"/><path d="M469.24,745.9l-61.88-3.82a2.43,2.43,0,0,1-2.15-3.21l77.4-228.75a2.49,2.49,0,0,1,1-1.27l85.31-55.24a2.43,2.43,0,0,1,3.73,2.42C567,492.5,528.81,651,471.47,744.73a2.42,2.42,0,0,1-2.08,1.17ZM487,512.48,410.84,737.42l57.24,3.52c54-89.21,90.78-236,98.82-280.22Z"/><path d="M407.51,739.65l45,2.78c25.29-62.45,31.3-134.81,10.23-166Z"/><path d="M477.74,603.61c12.66,27.86,10.84,79.31,3.22,100.63,0-34.1-.73-60-7.37-87.71Z"/><path d="M488.87,591.89c1.11,8,1.93,15.87,2.5,23.79s.84,15.83.89,23.74-.13,15.82-.67,23.72-1.43,15.79-2.72,23.74a94.86,94.86,0,0,0,6.49-23.31,146.07,146.07,0,0,0,1.77-24.18,157.47,157.47,0,0,0-2-24.15A107,107,0,0,0,488.87,591.89Z"/><path d="M321.42,445.13l207.07-78.37c-.52,30.63-8.71,78-21,129.61-40.83-5-132.64-8.74-183.1,34,3.36,2.76,8,8.68,13.19,17.23,17.65,15,54.49,63.15,56.92,152.06-10-43.72-19.55-89.06-42.05-122.91,17.84,41,34.81,104,27.95,173l-.07.44-81.43-8.42Z"/><path d="M413.85,756.17,298.64,744.26a2.45,2.45,0,0,1-2.18-2.61L319,445a2.44,2.44,0,0,1,1.57-2.09l207.06-78.37a2.43,2.43,0,0,1,3.3,2.31c-.48,29-8,75.18-21.07,130.13-22.71,95.24-63.3,218.13-93.81,258.29a2.42,2.42,0,0,1-1.94,1ZM323.73,446.86,301.5,739.65,413,751.18c30-40.74,69.74-161.48,92.13-255.37C517.6,443.42,525,399.11,526,370.32Z"/><path d="M444.58,701.82c32.7-85.27,18.62-179.77,10.43-209l-4.69,1.32C458.39,522.93,472.26,616,440,700.08Z"/><path d="M409.86,753c28-102.6,19-213.61,6.19-263.19L411.33,491c8.81,34,24.87,147-6.17,260.69Z"/><path d="M372.85,665.81c16.42-48.69,12.32-130.18,5.88-170.12l-4.81.78c6.37,39.47,10.46,119.93-5.68,167.78Z"/><path d="M341.76,439.65a3,3,0,0,0,1.1-.2L547.53,360a3,3,0,0,0-2.21-5.67L340.66,433.77a3,3,0,0,0,1.1,5.88Z"/><path d="M381.93,595.54a52,52,0,0,1,3.8,7.89c1.08,2.69,2,5.46,2.87,8.23,1.73,5.56,3.13,11.21,4.4,16.88s2.34,11.38,3.21,17.13,1.7,11.5,2.23,17.28,1,11.56,1.24,17.36.23,11.6.07,17.4a153.66,153.66,0,0,1-4.8,34.54c5-10.7,7.44-22.52,8.6-34.29a164.69,164.69,0,0,0,.74-17.77c-.09-5.92-.46-11.84-1-17.73a204.25,204.25,0,0,0-6.61-34.85,145.85,145.85,0,0,0-5.83-16.77c-1.22-2.71-2.42-5.41-3.9-8A41.31,41.31,0,0,0,381.93,595.54Z"/><path d="M329,724.43C304.16,713.66,217.5,711.14,208.72,715c-.16.22-.25.33-.27.35a2.43,2.43,0,0,1-4.33-1.53,3.1,3.1,0,0,1,1.3-2.5c4.33-5.66,26.2-35.32,43.55-78.92,6.45-16.19,19.12-44.7,37.65-84.72,25.2-54.39,52.67-111.55,52.95-112.12a2.43,2.43,0,0,1,4.62.93c.1,1.81,9.37,182.37-11.86,286.21a2.41,2.41,0,0,1-1.26,1.67,2.48,2.48,0,0,1-1.12.28A2.35,2.35,0,0,1,329,724.43ZM291,549.71c-18.49,39.95-31.12,68.37-37.54,84.49a365.72,365.72,0,0,1-40.57,75.12c23-2.83,90.14.62,115.2,9.55,17.62-89.66,13.21-234,11.63-272.46C331.09,464.52,310.4,507.94,291,549.71Z"/><path d="M282.55,627.81a37.12,37.12,0,0,1,1.51,9.93c.16,3.33.08,6.67-.05,10-.31,6.67-1,13.33-1.78,20s-1.84,13.26-3.06,19.85c-.65,3.29-1.31,6.57-2.16,9.82a60.18,60.18,0,0,1-3.15,9.6,36.18,36.18,0,0,0,5.41-8.81,80.53,80.53,0,0,0,3.59-9.69,119.9,119.9,0,0,0,4.21-20.17,111.69,111.69,0,0,0,.73-20.61,66.28,66.28,0,0,0-1.38-10.28A26.9,26.9,0,0,0,282.55,627.81Z"/><path d="M206.55,713.82c17.86-3.5,36.84-3.92,56.63-2.09,0,0,20.59-43.12,26.88-119.44,1.76-21.28.9-34.94-1.23-43.6-15.45,33.38-30.18,66-37.59,84.61C231.6,682.62,206.55,713.82,206.55,713.82Z"/><path d="M291.74,640.45c.47,5.66.37,11.29.32,16.94s-.21,11.29-.42,16.93-.38,11.29-.6,16.94-.43,11.28-1,16.93a101.74,101.74,0,0,0,2.88-16.8c.6-5.65.93-11.32,1.14-17s.16-11.36-.12-17A83,83,0,0,0,291.74,640.45Z"/><path d="M299.65,640.45a96.1,96.1,0,0,0,.44,19.48,191.77,191.77,0,0,0,3.1,19.22c.73,3.17,1.45,6.33,2.31,9.47.41,1.57.88,3.13,1.35,4.69l.71,2.33.8,2.31a90.94,90.94,0,0,0,3.59,9.1l1.05,2.21c.38.72.77,1.44,1.18,2.15a35.9,35.9,0,0,0,2.67,4.09,127.59,127.59,0,0,1-5.76-18.36c-.77-3.12-1.56-6.22-2.24-9.36s-1.43-6.26-2.09-9.39l-1-4.71-1-4.72c-.67-3.14-1.26-6.3-1.88-9.45C301.71,653.19,300.51,646.89,299.65,640.45Z"/><path d="M330,722.2s-13.1-35-14.47-75.51c-4.41,20.4,3.2,70.35,4.72,75.14Z"/><path d="M174.1,237.65a4.25,4.25,0,0,1,5.24-3l341.41,93.57a4.26,4.26,0,0,1-1.13,8.37,4,4,0,0,1-1.13-.15L177.08,242.89A4.26,4.26,0,0,1,174.1,237.65Z"/><path d="M161.12,317.23c16-4.16,56.71-8,68,13.41,36.84,6.79,38.64,14.71,25.25,15.62s-69.1,2.2-69.1,2.2l-21.92-.34-32.88.87S152,330.71,161.12,317.23Z"/><path d="M313,363.05q6.78,1.41,13.61,3a487.79,487.79,0,0,1,69,21.94h0c72.31,28.67,128.29,67.25,128.29,67.25.15-1.29.27-2.6.37-3.95a164.47,164.47,0,0,0-.38-26c-4.26-15-10.13-22.33-14.39-22.33S415.4,361,313,363.05Z"/><path d="M522.5,457.26c-1-.65-95.81-65.48-196.46-88.84-4.51-1.05-9-2.05-13.45-3l-.11,0c-95.39-19.86-181-14.07-181.8-14a2.44,2.44,0,0,1-1.53-4.45c.45-.3,45.08-30.89,66.14-107.93a2.42,2.42,0,0,1,3-1.71l297.66,81.59a2.39,2.39,0,0,1,1.44,1.08c12.84,21.22,25.81,68.37,28.92,105.1a155.4,155.4,0,0,1,0,30.43,2.41,2.41,0,0,1-1.41,1.94,2.36,2.36,0,0,1-1,.22A2.4,2.4,0,0,1,522.5,457.26ZM199.34,242.67c-17.17,60.73-48,92.26-61.25,103.51,23.29-.92,95.91-2.05,175.28,14.46l.11,0c4.48.93,9.08,1.95,13.66,3,90.74,21.07,176.72,75.46,194.7,87.29a162.41,162.41,0,0,0-.4-25.45c-3.26-38.58-16.85-83.51-27.73-102.16Z"/><polygon points="194.62 250.22 249.8 262.82 195.91 245.52 194.62 250.22"/><path d="M500.61,331.56C477.73,325.29,439.85,314,400,313.68c27.91,10.55,53.29,32.68,63,43.43-26.18-18.26-68.4-41.2-86.06-46.28l43.23,33.9s-74.09-45.47-81-48.31-9.54,1-9.54,1-29.14-14.7-34.06-16.89-32.76-9.78-68.06-32.68L495.3,321.26Z"/><path d="M506.22,396.19a35.07,35.07,0,0,0-4.48-12.46,78.43,78.43,0,0,0-7.58-10.89q-2.12-2.54-4.34-5t-4.6-4.73c-3.12-3.1-6.3-6.13-9.61-9A245.83,245.83,0,0,0,455,337.87a160.08,160.08,0,0,0-22.45-13.54c7.33,4.74,14.26,10,21,15.4s13.39,11,19.75,16.92c3.16,3,6.31,5.92,9.34,9s6,6.24,8.8,9.48,5.6,6.51,8.14,10A55.54,55.54,0,0,1,506.22,396.19Z"/><path d="M179,321.72a152.47,152.47,0,0,0,18.31-16.27,240.72,240.72,0,0,0,16-18.16c-5.75,5.62-11.79,10.92-18,15.91a148.52,148.52,0,0,1-19.55,13.39Z"/><path d="M166.56,321.5a104.44,104.44,0,0,0,9-9.9q4.15-5.09,8-10.34,7.77-10.47,15-21.28-8.43,9.88-17.3,19.33c-3,3.14-6,6.22-9,9.2a98.2,98.2,0,0,1-9.49,8.3Z"/><path d="M355.46,731.53,202.1,721.92a6,6,0,0,1-4.08-2,5.7,5.7,0,0,1-1.41-4.16,5.85,5.85,0,0,1,6.24-5.41L356.2,720a5.79,5.79,0,0,1-.37,11.58ZM200.25,716h0a2.06,2.06,0,0,0,.52,1.51,2.25,2.25,0,0,0,1.56.76l153.24,9.61h.26a2.14,2.14,0,1,0,.14-4.28L202.63,714h-.14A2.22,2.22,0,0,0,200.25,716Z"/><path d="M198.43,715.88a4,4,0,0,0,3.79,4.21l93.37,5.85,1-1.71c-12.16-.91-76-5.27-76-6.5s-1.05-2.76,5.34-2.37c1.23.07,1-.6-.17-1.75l-23-1.43A4,4,0,0,0,198.43,715.88Z"/><path d="M532.47,466.82l-10.59-2.91-.17,0L138.41,358.74l-.22-.08-27.51-7.54h0a6.7,6.7,0,0,1,3.55-12.93L528.64,451.87l7.39,2a6.71,6.71,0,0,1-1.78,13.17A6.93,6.93,0,0,1,532.47,466.82ZM110.69,344.17a1.86,1.86,0,0,0,1.29,2.26L139.7,354l.23.07,382.93,105,.17,0,10.69,2.93a1.83,1.83,0,1,0,1-3.52L113,342.89a2.05,2.05,0,0,0-.49-.06A1.83,1.83,0,0,0,110.69,344.17Z"/><polygon points="361.97 417.52 381.07 413.92 213.32 367.91 195.36 371.82 361.97 417.52"/><path d="M111.33,348.78l27.73,7.59s-6.86-3.19-6.79-10.7l-18.69-5.13a4.27,4.27,0,0,0-2.25,8.24Z"/><path d="M522.38,461.53l9.93,2.72a10.75,10.75,0,0,0,1.53-3.8,20.5,20.5,0,0,0,.38-4.53l-6.22-1.7C530.29,456.3,529.8,462.29,522.38,461.53Z"/><path d="M131.46,670.79l10.23,6,13.8-15s30.88-7.18,66.27-14.74c16.24-14.28,22.41-35.6,21.61-53.86-1,7.86-9.82,25.75-10.38,26.87.42-1.37,9.45-31.47,7.69-62.57C216.42,594.13,181.52,633,131.46,670.79Z"/><path d="M140.46,678.84l-10.23-5.94a2.44,2.44,0,0,1-.24-4c45.15-34,81.7-72,108.66-112.78,64.56-97.7,53.08-180.7,53-181.53a2.44,2.44,0,0,1,.33-1.63c14.45-23.54,27.68-54.4,48.95-135.43,6.57-25,11.65-66.45,11.7-66.87a2.44,2.44,0,0,1,4.85.15c2.92,49.42-19,131-20.85,138a1353,1353,0,0,1,7.67,139.47c0,71.39-8,134.4-23.26,182.2a2.42,2.42,0,0,1-2.22,1.69c-16.11.65-61.37,9.76-96.51,17.28-32,6.84-60.61,13.43-65.5,14.56l-13.29,14.47a2.41,2.41,0,0,1-1.79.79A2.5,2.5,0,0,1,140.46,678.84ZM339.39,448.18a1339.14,1339.14,0,0,0-7.7-139.37,2.5,2.5,0,0,1,.08-.94c.17-.61,12.4-44.95,18.15-88.61-1.33,6.88-2.78,13.6-4.32,19.45-21.2,80.77-34.55,112.18-49.05,136,.54,4.39,2.49,24.17-2.08,54.06-4.69,30.66-17.48,78.1-51.76,130-26.68,40.38-62.62,78-106.87,111.77l5.38,3.13,12.47-13.59a2.43,2.43,0,0,1,1.25-.72c.31-.08,31.31-7.27,66.31-14.75,34.16-7.32,77.89-16.12,95.62-17.29C331.6,580.16,339.39,518.28,339.39,448.18Z"/><path d="M310.07,619c-6.26-28.17-5.09-69.47-5.09-69.47s6.09,57.24,16.44,71l-2.74,9-3,.23.1.19-5,.27c-5.72-7.84-17.42-39.25-20.67-62.9C293.92,584.73,303.76,606.26,310.07,619Z"/><path d="M252.81,590a40.09,40.09,0,0,1-.94,6.18c-.43,2-1,4-1.47,6-1.08,4-2.27,8-3.61,11.92-.64,2-1.36,3.91-2.1,5.84s-1.54,3.84-2.38,5.72a50.81,50.81,0,0,1-2.87,5.47,16.72,16.72,0,0,1-4,4.7,13.89,13.89,0,0,0,4.95-4,36.84,36.84,0,0,0,3.59-5.3,70,70,0,0,0,5.1-11.65,86.53,86.53,0,0,0,3.15-12.29,63,63,0,0,0,.8-6.3A24.91,24.91,0,0,0,252.81,590Z"/><path d="M317.87,527.54a74.89,74.89,0,0,0-3,16.51c-.28,2.79-.37,5.58-.47,8.38s0,5.58,0,8.38a158.17,158.17,0,0,0,1.35,16.69,112.48,112.48,0,0,0,3.35,16.42c-.07-5.61-.3-11.14-.5-16.66L318,560.7c-.1-2.75-.15-5.51-.21-8.27l-.14-8.27C317.64,538.64,317.64,533.13,317.87,527.54Z"/><polygon points="331.77 307.85 319.29 359.58 336.45 309.2 331.77 307.85"/><path d="M151.22,663.44a3.64,3.64,0,0,0,.56-.05l175.44-32.58a3,3,0,0,0-1.11-6L150.67,657.4a3,3,0,0,0,.55,6Z"/><path d="M495.8,199.32a4.87,4.87,0,0,0,1.3-9.57L208.46,110a4.87,4.87,0,0,0-2.59,9.39L494.5,199.14A4.91,4.91,0,0,0,495.8,199.32Z"/><path d="M494.34,199.73,205.71,120a5.49,5.49,0,0,1-3.83-6.75,5.5,5.5,0,0,1,6.75-3.82l288.63,79.77a5.49,5.49,0,0,1-1.46,10.77A5.59,5.59,0,0,1,494.34,199.73ZM203.06,113.54a4.25,4.25,0,0,0,3,5.24l288.64,79.77a4,4,0,0,0,1.13.16,4.27,4.27,0,0,0,3.71-6.37,4.23,4.23,0,0,0-2.57-2L208.3,110.56a4.45,4.45,0,0,0-1.13-.15A4.27,4.27,0,0,0,203.06,113.54Z"/><path d="M259.35,235.22c32.39-.63,73.14,2.05,113.73,14,1.77.53,3.51,1.05,5.24,1.6h.06c84.75,26.49,127.16,75.05,128.15,76.18h0a174.13,174.13,0,0,0-1.91-35.4c-15.77-44.15-50.47-79.66-86.08-99.35,28.76,21.28,51.15,41.22,64.23,76.52C481.32,268.15,370.67,216,259.35,235.22Z"/><path d="M504.81,328.77l-.12-.12c-1.74-2-43.62-49.29-126.7-75.35l-.41-.12c-1.71-.54-3.44-1.06-5.19-1.58-34-10-72-14.74-113-13.94-8.9.17-18,.62-26.95,1.34a346.58,346.58,0,0,0-38.29,4.93l-.6.12-11.41-3.38,3.45-2.91c.14-.12,14.31-12.21,26.17-34.13a135.94,135.94,0,0,0,11.42-28.3c11-39.69,10.3-54.56,10.29-54.7l-.21-3.4L473,183.49l.48,1c.25.54,25.88,54.72,33.52,106.8A176.28,176.28,0,0,1,509,327.21l-.34,5.39ZM238.28,123.67c-.3,6.38-2,22.43-10.42,53a142.43,142.43,0,0,1-35.92,61.87l1.82.54a361.87,361.87,0,0,1,38.28-4.9c9.08-.72,18.24-1.18,27.26-1.35,41.47-.82,80,3.94,114.48,14.14,1.66.49,3.3,1,4.94,1.5l.39.12c71,22.19,112.63,59.87,125.21,72.61a182.45,182.45,0,0,0-2.1-29.15c-7-47.47-29.13-96.82-32.63-104.42Z"/><path d="M475.79,259.69a279.45,279.45,0,0,0-20-25.42,266.73,266.73,0,0,0-22.84-23,214.37,214.37,0,0,0-25.66-19.94,140.77,140.77,0,0,0-28.87-14.72,222.89,222.89,0,0,1,26.9,17.53,316.14,316.14,0,0,1,24.45,20.62c7.83,7.26,15.32,14.89,22.93,22.43S467.77,252.42,475.79,259.69Z"/><path d="M187.15,239.62l6.49,1.92a347.27,347.27,0,0,1,38.6-5c19.76-7.61,59.95-11.26,59.95-11.26s-37.45-3.07-48.71-1.54c18.27-5.16,37.14-8.51,37.14-8.51s-29.38-1.52-49.48,3.49c13.25-7.45,32.43-11.41,32.43-11.41s-31.82,1.67-44.61,7c4.58-5.63,1.27-13-5.06-9.56C201.68,227.37,187.15,239.62,187.15,239.62Z"/><polygon points="474.69 189.36 401.8 172.33 473.43 194.07 474.69 189.36"/><polygon points="234.93 129.01 289.25 142.69 236.33 124.34 234.93 129.01"/><path d="M471.91,800c-8.61,8.88-35.2,11.72-48.59,9.9l-20,16,8.09,1.86s42.1,7,79.22-8.28c16.75-5.88,31.63-14.26,33.06-15.7,0,0,3.55-13.09,2-25.58H504.1l.31-20.7H496.9s-7.72,8.73-6.5,13.6c-2.54-.41-4.77,1.42-2.64,3.35v6h-8.62s.81-9.14.91-12.49-5-2.84-4.87-.1.3,12.69.3,12.69h-9.33s-2.64-6.5-5.08-7.11-54.9,1.52-54.9,1.52-2.61-2.13-5.26-2.13S354.2,772,354.2,772s-2-6.66-7.2-9.77c0,0-16.74.91-22.62-1V762s55.87,32.25,86.69,38S457.69,806.34,471.91,800Z"/><path d="M389.29,835.29l-32.06,35.27c72.32,3.06,143.27,3.52,147.58-6.08,8.94-19.88,13.2-56.82,13.2-56.82l1.77-1.21c-3.34,2.12-31.28,19.22-74.11,22.63-45.7,3.64-78.27-12.69-78.27-12.69l-18.51-7.28-3.06,2Z"/><path d="M219.77,778.4l15.42,85.18L200.55,861s-18-72.22-20.68-95.07c-.4-3.44-2.44-9.44-1.85-11.34,3.33-10.78,22.08,3.5,22.08,3.5Z"/><path d="M357.13,873c-76.73-3.23-156-9.47-156.77-9.53a2.44,2.44,0,0,1-2.18-1.87c-.8-3.36-19.24-81.25-22.72-107.7l-.61-.32a2.43,2.43,0,0,1-1.26-2.63l5.48-27.6a2.45,2.45,0,0,1,2.39-2c2.8,0,68.86.24,107.12,21,33.5,18.17,41.34,17.54,42.06,17.42a2.72,2.72,0,0,1,.86-.15l25.1.28-.46-8.37a2.43,2.43,0,0,1,.69-1.84,2.45,2.45,0,0,1,1.84-.72l145.84,6.09a2.43,2.43,0,0,1,2.33,2.46l-.26,18.24h19.14a2.42,2.42,0,0,1,2.43,2.28c0,.65,1,16.18-2.13,26.44a2.46,2.46,0,0,1-1,1.3l-4.76,3.24c-.8,6.43-5,38.13-13.27,56.43-1.78,4-9.17,8.16-50.45,9.22q-9.54.25-20.94.25C414.17,875,387.88,874.3,357.13,873Zm166.26-92.34H504.1a2.44,2.44,0,0,1-2.43-2.47l.27-18.34L361.15,754l.46,8.28a2.45,2.45,0,0,1-2.46,2.58l-27.4-.31c-3.06.62-13.22-.35-45.49-17.86-33.55-18.2-91.36-20.17-102.8-20.38l-4.73,23.84.12.07a2.41,2.41,0,0,1,1.28,1.86c2.75,22.84,19.54,94.62,22.38,106.7,12.15.94,84.55,6.42,154.82,9.38,41.51,1.75,74.86,2.33,99.13,1.7,41.67-1.07,45.74-5.47,46.13-6.34,8.68-19.31,13-55.74,13-56.11a2.42,2.42,0,0,1,1-1.73l5-3.37C523.56,795.1,523.52,785.1,523.39,780.66ZM330.32,759.94h0Zm0,0h0Zm0,0h0Zm0,0Z"/><path d="M434.84,831.91c27.83,0,55.11-7.21,84.27-22.09l-2.21-4.33c-77.06,39.31-131.5,19.15-200-13.63s-101.14-37-138.86-41.93l-.63,4.83c37.31,4.84,69.53,9,137.39,41.49,31.93,15.28,63.37,29.38,96.93,34A167.8,167.8,0,0,0,434.84,831.91Z"/><path d="M180.32,733.06c10.26.88,20.52,1.15,30.67,1.64,5.08.25,10.13.55,15.15,1,2.5.27,5,.59,7.5.94s5,.73,7.43,1.29a191.7,191.7,0,0,1,29.22,8.55c2.42.85,4.79,1.83,7.18,2.77s4.78,1.87,7.16,2.86c4.78,1.91,9.49,4,14.26,6-4.44-2.63-8.89-5.23-13.43-7.71s-9.09-4.93-13.75-7.2a174.94,174.94,0,0,0-29.1-11.55,175.74,175.74,0,0,0-31-5.71,278.36,278.36,0,0,0-31-1.42Z"/><path d="M178.79,740.06c10.24,1,20.47,1.28,30.61,1.79,2.55.09,5,.31,7.59.43s5,.41,7.54.6c5,.56,10,1.21,14.92,2.18a198.74,198.74,0,0,1,29.26,8.18c2.42.82,4.8,1.77,7.2,2.67s4.79,1.8,7.18,2.75c4.79,1.84,9.52,3.86,14.3,5.76-4.46-2.56-8.94-5.1-13.49-7.51s-9.14-4.79-13.82-7a180.29,180.29,0,0,0-29.14-11.19,183.71,183.71,0,0,0-30.86-5.63,299.82,299.82,0,0,0-30.91-1.56Z"/><path d="M177.26,747.06c10.21,1,20.43,1.42,30.55,1.94,2.54.1,5.05.31,7.58.43s5,.39,7.53.59c5,.55,10,1.16,14.91,2.1a205.8,205.8,0,0,1,29.3,7.83c2.43.78,4.81,1.71,7.22,2.56s4.81,1.74,7.2,2.65c4.81,1.77,9.54,3.73,14.35,5.55-4.49-2.49-9-5-13.57-7.31s-9.18-4.65-13.87-6.79a186,186,0,0,0-29.18-10.83,194.76,194.76,0,0,0-30.77-5.53c-10.31-1.06-20.55-1.65-30.8-1.7Z"/><path d="M175.73,754.06c10.18,1.13,20.39,1.56,30.5,2.09l7.57.43c2.51.18,5,.36,7.52.59s5,.47,7.47.86l3.73.52c1.24.17,2.47.42,3.7.62a215.79,215.79,0,0,1,29.34,7.49c2.43.74,4.82,1.64,7.23,2.46s4.82,1.67,7.22,2.54c4.83,1.69,9.57,3.59,14.39,5.34-4.51-2.42-9-4.85-13.63-7.11s-9.22-4.51-13.92-6.59a191.3,191.3,0,0,0-29.23-10.47,205.79,205.79,0,0,0-30.69-5.43c-10.26-1.07-20.47-1.71-30.68-1.85Z"/><path d="M443.41,807.35c24.63,0,38.24-9.28,38.95-9.78l-2.79-4c-.2.14-21,14.2-57.48,6.62-32.86-6.84-69.42-26.08-91.27-37.58-3.28-1.73-6.25-3.29-8.86-4.63l-2.22,4.33c2.59,1.33,5.55,2.89,8.81,4.61,22.08,11.62,59,31.06,92.55,38A109.38,109.38,0,0,0,443.41,807.35Z"/><path d="M201.86,757.68a104,104,0,0,1,11.29,7.62,75.83,75.83,0,0,1,9.85,9.41,120.5,120.5,0,0,1,8.57,11.3c2.73,4,5.37,8,8.12,12.16-3.5-9.06-7.43-18.07-13.11-26.2a56.9,56.9,0,0,0-10.05-11.07,49.16,49.16,0,0,0-13-7.81Z"/><path d="M193.79,757.68A68.92,68.92,0,0,1,205.28,767a146.42,146.42,0,0,1,10.4,11.33A153.17,153.17,0,0,1,224.93,791a92.63,92.63,0,0,1,7.75,13.92,68.79,68.79,0,0,0-5.35-15.17,112.37,112.37,0,0,0-8-14.06A90.39,90.39,0,0,0,209.09,763c-3.86-3.89-8.18-7.55-13.66-9.87Z"/><path d="M265.1,805.78c-.46-7.16-4-13.55-9-13.86s-9.13,11.42-6.85,26.8,14.31,12.33,14.31,12.33-3.8-.31-7.46-5.63c4.27-8.38,1.83-26.34,1.83-26.34S261.44,799.38,265.1,805.78Z"/><path d="M397.21,833.33a290.12,290.12,0,0,0-30.47-14.89q-15.42-6.57-31.11-12.21,14.4,8.38,28.22,17.57a282.69,282.69,0,0,1,26.31,19.46Z"/><path d="M392.49,840.72a251.52,251.52,0,0,0-30.41-13.67q-15.4-5.84-31.06-10.59c9.67,5,19.14,10.41,28.37,16a242.31,242.31,0,0,1,26.27,18.3Z"/><path d="M387.77,848.12c-5-2.58-10-4.81-15.09-6.88s-10.17-3.87-15.28-5.6q-15.39-5.11-31-8.94c9.73,4.44,19.25,9.31,28.5,14.5,4.62,2.62,9.16,5.33,13.58,8.16s8.66,5.84,12.66,9Z"/><path d="M383.05,855.52c-5-2.43-10-4.5-15.08-6.37s-10.16-3.46-15.27-4.95c-10.23-2.92-20.53-5.37-30.89-7.27,9.8,3.85,19.36,8.2,28.65,12.93q6.94,3.58,13.59,7.54c4.39,2.67,8.64,5.49,12.62,8.49Z"/><path d="M378.34,862.93a148.5,148.5,0,0,0-15.1-5.89q-7.61-2.43-15.25-4.3t-15.36-3.24c-5.13-.92-10.28-1.73-15.43-2.34,4.93,1.6,9.79,3.39,14.6,5.27s9.53,3.92,14.18,6.06,9.19,4.48,13.61,6.93a136.61,136.61,0,0,1,12.58,8Z"/><path d="M373.62,870.34a132.22,132.22,0,0,0-15.12-5.42c-5.07-1.43-10.15-2.67-15.25-3.66s-10.21-1.8-15.32-2.45-10.22-1.15-15.34-1.42c5,1.28,9.84,2.77,14.67,4.39s9.57,3.4,14.24,5.32,9.21,4,13.63,6.31A120.82,120.82,0,0,1,367.67,881Z"/><path d="M423.71,819.94a145.43,145.43,0,0,1-31.44-1.05,157.63,157.63,0,0,1-31-7.38,159,159,0,0,0,30.41,10.37A149.35,149.35,0,0,0,423.94,826Z"/><path d="M425.26,816.72a143.43,143.43,0,0,1-31.08-2.63,164.07,164.07,0,0,1-30.39-8.65,165.38,165.38,0,0,0,29.69,11.61c5.13,1.48,10.34,2.74,15.63,3.73a126.19,126.19,0,0,0,16.11,2Z"/><path d="M426.8,813.51a114.52,114.52,0,0,1-15.38-1.18c-5.14-.72-10.26-1.73-15.35-2.94s-10.13-2.64-15.11-4.28a141.66,141.66,0,0,1-14.68-5.74,142.84,142.84,0,0,0,14.13,7.16q7.27,3.19,14.82,5.79c5,1.71,10.13,3.24,15.34,4.49a118.09,118.09,0,0,0,15.93,2.78Z"/><path d="M428.34,810.31a107.76,107.76,0,0,1-15.26-1.87c-5.08-1-10.14-2.2-15.15-3.65s-10-3.1-14.86-5a118.71,118.71,0,0,1-14.3-6.52,118.26,118.26,0,0,0,13.68,7.91q7.1,3.56,14.49,6.47c4.93,2,9.95,3.71,15.08,5.21a110.89,110.89,0,0,0,15.77,3.49Z"/><path d="M345.83,762.24V765l57.29,1.22V776.8s4.48,8.22,7.41,0A15.1,15.1,0,0,0,409,762.9l.2-2.75,26.79,4,7.41-1.83,2.24-7.22-5.28-.23-1.11,4.3-66-7.71H358.57l.61,11Zm24.71-.76,1.42-6,33.29,3.65-1.11,3.66Z"/><path d="M193.86,744.11a2.38,2.38,0,0,1-1.49-.67C136.26,689.35,73.69,639.24,1.07,590.25a2.43,2.43,0,0,1,2.5-4.17c16.71,8.74,60.28,32.79,105.58,61.17,52,32.58,89,59.82,109.78,81a2.43,2.43,0,0,1,.65,2.19c-1.22,6.09-5.43,10.41-12.17,12.5l-.2.07a34.27,34.27,0,0,1-9.71,1.3C196.16,744.26,194.93,744.2,193.86,744.11Zm12-5.84c4.58-1.39,7.49-3.95,8.65-7.62C194,710.18,156.76,682.8,106.56,651.38c-22.86-14.33-45.28-27.54-64-38.23,56.45,40.44,106.66,82,152.56,126.17a31.41,31.41,0,0,0,10.55-1Z"/><path d="M2.44,588.23c84.85,57.24,146.14,109.61,191.62,153.46a34.32,34.32,0,0,0,12.44-1.06l.05,0s-56.4-53.12-98.69-91.29C63.48,621.51,20.35,597.61,2.44,588.23Z"/><path d="M357.06,55.94a10.77,10.77,0,0,0-2.18,4.75l-1,5-2.23,9.92c-1.56,6.6-3.11,13.2-4.83,19.76s-3.45,13.11-5.22,19.66-3.68,13-5.63,19.54q-11.62,39-25.84,77.11t-30.73,75.26Q262.79,324,243.49,359.8c-12.85,23.83-26.63,47.17-41.63,69.7a789.7,789.7,0,0,1-48.06,65.36,610.28,610.28,0,0,1-55.16,59.42c-2.45,2.33-4.86,4.71-7.35,7L83.68,568l-7.62,6.7-1.9,1.68c-.64.54-1.31,1.06-2,1.6l-4,3.17-7.91,6.36c-2.64,2.11-5.24,4.28-8,6.21l-8.2,6-4.1,3-2,1.49-1,.75c-.16.14-.37.21-.49.41s0,.76.48,1.84c.82.83,1.28,1.12,1.52,1.1s.37-.23.55-.33l1-.74,2.09-1.47,4.18-2.94,8.36-5.89c2.83-1.9,5.49-4,8.18-6.13l8.08-6.27,4-3.14c.67-.52,1.35-1,2-1.57l2-1.66,7.79-6.63,7.79-6.63c2.55-2.26,5-4.62,7.52-6.93a604.4,604.4,0,0,0,56.29-59.32A785.19,785.19,0,0,0,207,432.89c15.09-22.71,28.95-46.21,41.86-70.2s24.78-48.53,35.79-73.43,21-50.25,30.17-75.88,17.32-51.61,24.67-77.81c1.84-6.54,3.57-13.12,5.32-19.7s3.38-13.17,4.91-19.8,3.06-13.25,4.52-19.9l2.07-10,1-5A10.61,10.61,0,0,0,357.06,55.94Z"/><path d="M233,504.81A148.37,148.37,0,0,0,235.24,520c1,5,2.2,10,3.56,14.91a137.53,137.53,0,0,0,4.95,14.54,53.41,53.41,0,0,0,7.49,13.4,92.92,92.92,0,0,1-5.7-14.07c-1.59-4.8-3-9.65-4.39-14.54s-2.71-9.77-4.06-14.67S234.43,509.71,233,504.81Z"/><path d="M93.35,606.59a2.44,2.44,0,0,1,.11-2.77c.67-.9,68.64-92.08,132.35-211.34,63.26-118.43,71.07-145.7,71.17-146.07a2.45,2.45,0,0,1,2.43-1.8,2.41,2.41,0,0,1,2.31,2C318.81,333.46,309.17,507.38,274,579a2.51,2.51,0,0,1-2.23,1.36h-1.22c-38.77,0-173.27,27.09-174.64,27.36a2.72,2.72,0,0,1-.49.05A2.43,2.43,0,0,1,93.35,606.59Zm205.2-350.2c-6,15.07-22.8,52.94-68.44,138.38-55.35,103.6-113.91,186.09-129,206.9,27.18-5.39,134-26.13,169.19-26.23C303.39,506.21,313.13,344.45,298.55,256.39Z"/><path d="M276.13,568.25c-2.92-12.9-5.55-58-5.55-58s-3.85,57-.81,67.59h2Z"/><path d="M266.91,577.94c-2.88-22.13-18.41-64-17.65-74.2-2.13,23.45.87,63.81,15.2,74.3Z"/><path d="M117.3,574.55c17.63-11.43,73.4-28.74,115.67-5-21.26-4.26-26.74-4.87-51.71,6.09s-54.56,23.54-54.56,23.54l-31.3,6.09Z"/><path d="M253.32,572c-12.58-11.17-20.3-18.07-63.12-19.9Z"/><path d="M305.76,306.7S294,383.63,286.1,407.07c9.14-65.46,10.25-135.79,10.25-135.79s-11.16,53.59-34.3,98c0,0,20.07-63.06,23.13-88.47L299.34,247S306.47,285.08,305.76,306.7Z"/><path d="M47.5,619.29a2.84,2.84,0,0,0,.76-.1c70.39-18.22,212.71-38.11,233-38.65a3,3,0,1,0-.16-6.08C260.66,575,117.46,595,46.74,613.3a3,3,0,0,0,.76,6Z"/><path d="M130.51,354,135,393.68c.72,6.6,1.49,13.2,2.16,19.8.31,3.3.7,6.59,1,9.89l.91,9.9c.37,3.3.61,6.6.9,9.9s.57,6.61.78,9.91l.73,9.91c.15,3.31.34,6.61.55,9.92.6,13.24.93,26.47.45,39.81,2.5-13.12,3.24-26.54,3.35-39.89s-.78-26.71-1.91-40-3-26.51-5.21-39.66S134,366.92,130.51,354Z"/><path d="M526.8,136.88c-36.91-17.75-104.48-23.3-105.16-23.36l-2.45-.19,4-44.92,3.8,8.84c7.78,18.08,25.25,22,51.69,27.94l4.52,1c7.21,1.61,12.94,2.88,17.8,4.4l.37.11c11.77,3.71,18.4,9,28.41,22.53l5.83,7.89Zm-26.88-21.53c-4.73-1.49-10.48-2.77-17.75-4.39l-4.53-1c-23.4-5.25-41.15-9.24-51.14-23.6l-2,22.54c11.67,1.07,61,6.22,95.44,19.71-6.25-7.15-11.54-10.53-19.63-13.12Z"/><path d="M423.09,97h0c.11.38,2.79,8.44,29,13.79,26.78,5.48,31.66.4,48.62,2.2-5.59-1.76-12.4-3.2-21.52-5.25-27.1-6.09-46-10.12-54.36-29.57Z"/><path d="M394.8,65a72,72,0,0,0-13.41-5l-13.61-4.1L354.13,52c-4.55-1.29-9.11-2.55-13.69-3.74a3.65,3.65,0,1,0-1.85,7.07l.15,0c4.62,1,9.26,1.94,13.91,2.85l14,2.66,14,2.5A71.11,71.11,0,0,0,394.8,65Z"/><path d="M372.37,28.52a2.44,2.44,0,0,0,.61-4.8l-13-3.34a2.43,2.43,0,1,0-1.22,4.71l13,3.35A2.62,2.62,0,0,0,372.37,28.52Z"/><path d="M345.92,267.17a5,5,0,0,0,1.35,1.71,4.6,4.6,0,0,0,1.53.83l3.2,1c2.13.7,4.28,1.28,6.42,1.91a123.55,123.55,0,0,0,13,2.95,3,3,0,0,0,1.24-6,123.61,123.61,0,0,0-13.11-2.48c-2.22-.27-4.42-.6-6.65-.81l-3.33-.34a4.37,4.37,0,0,0-1.74.15A4.85,4.85,0,0,0,345.92,267.17Z"/><path d="M595.34,881.54c-6.42-.15-12.81-1.36-18.29-4.3a33.11,33.11,0,0,1-13-12.81,1.62,1.62,0,0,0-1.61-.79h-.07a49.41,49.41,0,0,1-13.25-.08,47.57,47.57,0,0,1-12.75-3.49,35.22,35.22,0,0,1-10.82-7.19A25.19,25.19,0,0,1,519.06,842a1.93,1.93,0,0,0-2.39-1.33,2,2,0,0,0-.49.22h0l-6.41,4a2,2,0,0,0-.83,1.07v0c-1.32,4.28-2.65,8.58-4.05,12.79l-.54,1.55-.27.72-.07.17s0,.05,0,0a.91.91,0,0,1,.13-.26,1,1,0,0,1,.18-.23l.14-.13c.27-.21.28-.18.28-.18a6.61,6.61,0,0,1-1.17.15c-.5,0-1,.05-1.55.05a62.71,62.71,0,0,1-6.5-.42,150.51,150.51,0,0,1-26-5.5c-17-5.15-33.22-13-47.06-24l0,0a2,2,0,0,0-2.88.33,2,2,0,0,0-.42.93,10.23,10.23,0,0,0,.35,4.56,18.33,18.33,0,0,0,1.63,3.77,29.41,29.41,0,0,0,2.15,3.28,36.27,36.27,0,0,0,2.51,3l.12-3a84.85,84.85,0,0,1-14.32,9.48,80.23,80.23,0,0,1-16,6.46,62,62,0,0,1-8.38,1.81,55.48,55.48,0,0,1-8.53.64,54.3,54.3,0,0,1-16.79-2.57h0a2,2,0,0,0-2.17,3l7.11,9.66,1.77-3.1c-5.14-.56-10.35-1.35-15.49-2.23s-10.28-1.92-15.34-3.17a143.37,143.37,0,0,1-14.95-4.39,69.53,69.53,0,0,1-13.87-6.5l0,0a1.88,1.88,0,0,0-2.15.1l-3.45,2.69,2.88,2.15a11.17,11.17,0,0,0,.65-3.8,9.5,9.5,0,0,0-.75-3.85,8.65,8.65,0,0,0-2.38-3.21,7.26,7.26,0,0,0-.78-.59l-.73-.5a13.21,13.21,0,0,1-1.15-.81,13.61,13.61,0,0,1-3.6-4.27,12.05,12.05,0,0,1-1.52-5.21v0A1.83,1.83,0,0,0,293,834c-2.27,1.75-4.79,3.16-7.22,3.22s-4.71-1.38-6.68-3.38a1.85,1.85,0,0,0-2.36-.23c-1.35.91-2.69,1.84-4,2.68a9.52,9.52,0,0,1-3.67,1.63,10,10,0,0,1-4-.73c-1.51-.5-3.1-1.05-4.72-1.51a34.92,34.92,0,0,0-10.18-1.48A26.37,26.37,0,0,0,240,836.47l1.64,0c-2.16-1.11-4.33-2.32-6.46-3.55s-4.23-2.53-6.28-3.87-4.06-2.74-6-4.24a32.18,32.18,0,0,1-5.11-4.8l-.05-.07a1.83,1.83,0,0,0-1.47-.66,9.2,9.2,0,0,0-3.18.57,9.37,9.37,0,0,0-2.78,1.61,12,12,0,0,0-2.06,2.28,12.82,12.82,0,0,0-1.45,2.73l2-1.31c-3.18-.24-6.31-.38-9.49-.41-1.58,0-3.18,0-4.79.08a34.8,34.8,0,0,0-4.95.54l2,.77a19.5,19.5,0,0,0-6.36-5.38,67.74,67.74,0,0,0-7.07-3.19,26.38,26.38,0,0,1-3.15-1.52,7.53,7.53,0,0,1-1.18-.86,8.57,8.57,0,0,1-1-1.16c-1.36-1.79-2.61-4.13-4.33-6.24a15.84,15.84,0,0,0-6.78-5.14,16.57,16.57,0,0,0-8.51-.76l-1.08.21-1.06.35a12.13,12.13,0,0,0-2.05.92,12.9,12.9,0,0,0-3.42,2.85,15.08,15.08,0,0,0-2.32,3.66,16.59,16.59,0,0,0-1.3,4.16,2,2,0,0,0,1.65,2.32l.38,0h.14c3.1-.09,6.66.28,9.09,1.6a3.68,3.68,0,0,1,2.07,2.55,4.12,4.12,0,0,1,0,.87,1.84,1.84,0,0,1,0,.38,1.07,1.07,0,0,1-.08.32,2.35,2.35,0,0,1-.84,1.08,9.57,9.57,0,0,1-4,1.44,30.07,30.07,0,0,1-4.89.39,63.18,63.18,0,0,1-10.1-.78,2.18,2.18,0,0,0-1.85.62l0,0a35.49,35.49,0,0,1-3.23,2.89c-.57.46-1.18.9-1.77,1.34l-1.84,1.25a43,43,0,0,1-7.91,4c-1.36.58-2.79,1-4.2,1.4a42.53,42.53,0,0,1-4.33.87,40.56,40.56,0,0,1-8.81.33h0a2.11,2.11,0,0,0-2.21,2,2.14,2.14,0,0,0,.22,1,10.38,10.38,0,0,1,0,9.4A19.87,19.87,0,0,1,92.24,857c-.38.25-.75.52-1.15.75l-1.22.66a27.57,27.57,0,0,1-2.49,1.25l-2.58,1.12-2.67.94-1.33.47-1.38.38-2.74.77c-1.85.46-3.73.83-5.59,1.25H71A2,2,0,0,0,69.54,867a2,2,0,0,0,1.37,1.46,78.7,78.7,0,0,1,12.25,4.64,49,49,0,0,1,5.65,3.14,14.46,14.46,0,0,1,4.28,3.87l0,.06a1.91,1.91,0,0,0,2.62.63,1.19,1.19,0,0,0,.23-.16,6.47,6.47,0,0,1,2.22-1.05,18.38,18.38,0,0,1,2.9-.58,46.14,46.14,0,0,1,6.26-.31q3.18,0,6.38.32c2.13.17,4.29.38,6.37.66L119,879a93.14,93.14,0,0,0,7.82,7.71c2.7,2.44,5.53,4.74,8.44,6.91s5.91,4.22,9,6.1a95.51,95.51,0,0,0,9.56,5.13c-2.94-2.1-5.88-4.16-8.7-6.38-1.42-1.09-2.81-2.22-4.2-3.34s-2.75-2.29-4.09-3.47c-2.7-2.34-5.3-4.78-7.85-7.26s-5-5.08-7.31-7.69h0a1.72,1.72,0,0,0-1.06-.59c-2.22-.34-4.39-.62-6.6-.82s-4.41-.32-6.64-.36a51.71,51.71,0,0,0-6.78.29,22.65,22.65,0,0,0-3.49.69,9.94,9.94,0,0,0-3.61,1.78l2.88.52A17.38,17.38,0,0,0,90.92,873a54,54,0,0,0-6.08-3.44,82.58,82.58,0,0,0-12.85-5l-.18,3.82c2-.43,3.9-.8,5.84-1.27l2.89-.79L82,866l1.43-.49,2.85-1,2.79-1.2A30.22,30.22,0,0,0,91.79,862l1.36-.72c.44-.26.87-.56,1.3-.84a23.89,23.89,0,0,0,8.75-9.13,14.47,14.47,0,0,0,0-13.13l-2,3.06a45,45,0,0,0,9.77-.37,45.64,45.64,0,0,0,4.79-1,48.35,48.35,0,0,0,4.63-1.55,46.13,46.13,0,0,0,8.66-4.41l2-1.37c.65-.49,1.31-1,1.94-1.47a36.58,36.58,0,0,0,3.7-3.33l-1.88.64a67.75,67.75,0,0,0,10.83.83,34.09,34.09,0,0,0,5.56-.46,13.42,13.42,0,0,0,5.77-2.22,6.51,6.51,0,0,0,2.25-3,3.75,3.75,0,0,0,.24-1,4.45,4.45,0,0,0,.1-.92,8,8,0,0,0-.11-1.75,7.12,7.12,0,0,0-1.51-3.3,8.93,8.93,0,0,0-2.62-2.15,17.12,17.12,0,0,0-5.68-1.8,29.65,29.65,0,0,0-5.67-.31l2.17,2.35a13.44,13.44,0,0,1,1-3,11.32,11.32,0,0,1,1.7-2.7,8.55,8.55,0,0,1,5.21-3,12.47,12.47,0,0,1,6.33.54,11.75,11.75,0,0,1,5.07,3.88c1.49,1.78,2.61,3.92,4.29,6.14a11.83,11.83,0,0,0,1.48,1.67,11.55,11.55,0,0,0,1.86,1.36,28.64,28.64,0,0,0,3.64,1.75,67.16,67.16,0,0,1,6.69,3,15.51,15.51,0,0,1,5.1,4.24l0,0a2,2,0,0,0,2,.75,29.55,29.55,0,0,1,4.34-.48c1.5-.08,3-.1,4.56-.09,3.06,0,6.17.16,9.21.37a2,2,0,0,0,2-1.27v0a8.69,8.69,0,0,1,1-1.78,7.28,7.28,0,0,1,1.35-1.51,5.18,5.18,0,0,1,1.62-1,5.82,5.82,0,0,1,1.83-.33l-1.52-.73a36.16,36.16,0,0,0,5.76,5.42c2,1.59,4.11,3,6.24,4.41s4.28,2.7,6.46,4,4.38,2.47,6.65,3.64a1.9,1.9,0,0,0,1.63.05h0a22.56,22.56,0,0,1,8.73-1.93,30.92,30.92,0,0,1,9.08,1.3c1.52.43,3,.93,4.59,1.46a13.46,13.46,0,0,0,5.57.88,9.27,9.27,0,0,0,2.91-.89,26.62,26.62,0,0,0,2.32-1.31c1.43-.91,2.76-1.85,4.1-2.76l-2.36-.24a17.57,17.57,0,0,0,4.08,3.14,10.77,10.77,0,0,0,5.32,1.32,12.8,12.8,0,0,0,5.17-1.34,24.25,24.25,0,0,0,4.21-2.66l-2.95-1.45a15.49,15.49,0,0,0,1.95,6.95,17.13,17.13,0,0,0,4.55,5.43,14.78,14.78,0,0,0,1.46,1c.28.18.39.28.57.4a3.28,3.28,0,0,1,.5.38,4.9,4.9,0,0,1,1.38,1.86,5.92,5.92,0,0,1,.45,2.37,9.35,9.35,0,0,1-.11,1.28,9.12,9.12,0,0,1-.3,1.18l0,0a1.86,1.86,0,0,0,1.12,2.38,1.91,1.91,0,0,0,1.78-.28l3.45-2.67-2.17.08a73,73,0,0,0,14.64,6.94,146.75,146.75,0,0,0,15.32,4.55c5.16,1.28,10.36,2.34,15.58,3.26s10.44,1.71,15.76,2.31a2,2,0,0,0,2.15-1.72,1.9,1.9,0,0,0-.36-1.36v0l-7.08-9.68-2.2,3a58.4,58.4,0,0,0,18,2.82,60.2,60.2,0,0,0,9.1-.67,66.87,66.87,0,0,0,8.89-1.88,85.76,85.76,0,0,0,16.79-6.74,88.65,88.65,0,0,0,15.14-10,2,2,0,0,0,.26-2.84l-.08-.09-.06-.06a31.43,31.43,0,0,1-2.17-2.6,24.74,24.74,0,0,1-1.84-2.82,13.13,13.13,0,0,1-1.27-2.91,6.24,6.24,0,0,1-.26-2.64L419.9,834c14.34,11.4,31.05,19.44,48.43,24.73a146.69,146.69,0,0,0,26.74,5.57,68.64,68.64,0,0,0,6.94.4c.6,0,1.2,0,1.82-.06a9.58,9.58,0,0,0,2.15-.36,3.37,3.37,0,0,0,1-.55l.08-.07.14-.13a3.92,3.92,0,0,0,.25-.32,2.27,2.27,0,0,0,.19-.34l0-.08.08-.22c.13-.31.23-.59.32-.86l.56-1.64c1.42-4.32,2.71-8.61,4-12.93l-.84,1.09,6.39-4.06-2.91-1.1a28.89,28.89,0,0,0,7.57,12.48,39,39,0,0,0,12,7.91,51,51,0,0,0,28,3.45l-1.68-.78a37.54,37.54,0,0,0,6.43,7.68,31.56,31.56,0,0,0,8.41,5.41,33.06,33.06,0,0,0,9.55,2.47A39.39,39.39,0,0,0,595.34,881.54Z"/><path d="M574.28,881.44s-30.6-16.44-35.16-14.31L526.79,863s15.17,12.94,28.57,19Z"/><path d="M552,886.51s-7.11-9.23-12.79-11.77-16.44-5-23.55-4.77l22.53,15.12S547.44,885.09,552,886.51Z"/><path d="M513.85,873.52c4.68,1.68,20,15.63,20,15.63S522.57,887,520,886c1.32,2.14,5.58,4.37,5.58,4.37s-10.86.1-14.31-1-14.62-6.19-17.51-10.45c-9.69-.51-20.75-5.58-30-13.8,11.17,6.19,27,7.43,27,7.43l-6.6-5.1s14.41,3.6,19.59,5.1S512.59,873.07,513.85,873.52Z"/><path d="M492.23,879.92a17.2,17.2,0,0,0,10.2,11.67l-3.6.55s-2.85-3.75-9.24-3.8-14.21,1.42-20-1.83-16.44-11.57-16.44-11.57,10.75,5.43,17.25,6.09c-7.61-3.3-23.24-12.68-29.64-19.92,12.11,7.54,26.19,11.19,33.57,13.78S485.45,880.68,492.23,879.92Z"/><path d="M465.44,890.37s-9.9-.18-12.34.66c0,0-9-4.87-11.64-8.07C447.55,886.23,461.86,889.79,465.44,890.37Z"/><path d="M415.35,878.09c-6.93-2.36-22.38-3.67-22.38-3.67s19-2.88,27.25,5l15.3,5.8c-7-3.6-16.36-9.76-16.36-9.76a12.34,12.34,0,0,0,3.95-5c-4.49.23-9.66-2.36-13.85-2.28,7.61-6.09,15.07-4,15.07-4a18.37,18.37,0,0,0,3.35-3.2c3.2,5.33,12,9.14,18.42,11.12,3.58,5.48,10.51,11,17,14.31,0,0-22.88-6.12-34.55-14.14,2.94,4.93,10.75,9.6,10.75,9.6a14.42,14.42,0,0,0,2.13,5.73l2.74,3.7-10.55.71s-25-5.93-36.64-6.54L394.09,883A52.27,52.27,0,0,0,415.35,878.09Z"/><path d="M424.26,894.15s-8.07.46-10.66,2.05c-2.06-3.19-9.36-7.46-14.77-8.67l-.95-1.07Z"/><path d="M409,896.91l-12.84-5.58s-8.68,1.63-14.87.81C387.59,895.7,399.25,899.09,409,896.91Z"/><path d="M310,855.62c-2.3,2.37-2.4,4.4-1.18,10s5.07,13.1,5.07,13.1-8.93-4.77-12-14.41,2.4-13.68,2.4-13.68a11.31,11.31,0,0,1,.13,6.41l3.71-2.51Z"/><path d="M310.2,882.13a24.74,24.74,0,0,1-6.15-4,45.6,45.6,0,0,1-5.38-5.55,54.9,54.9,0,0,1-4.56-6.4,31.65,31.65,0,0,1-3.34-7.17,33,33,0,0,0,2.25,7.72,56.53,56.53,0,0,0,3.65,7.25,49.11,49.11,0,0,0,4.79,6.73,28.83,28.83,0,0,0,6.43,5.71Z"/><path d="M174.55,874.89a65.74,65.74,0,0,0-6.58-7c-2.31-2.15-4.71-4.19-7.2-6.09a73.77,73.77,0,0,0-7.82-5.21,29,29,0,0,0-8.65-3.46,28.12,28.12,0,0,1,8,4.48,69.32,69.32,0,0,1,6.89,6c2.16,2.15,4.21,4.42,6.14,6.75a61.93,61.93,0,0,1,5.22,7.26Z"/><path d="M193.34,903.16c7.92,7.91,23.49,21.61,50.77,23-6.92-4.36-21.84-10.25-21.84-10.25A61.85,61.85,0,0,0,193.34,903.16Z"/><path d="M280.42,927.82a130,130,0,0,0-32.27-8.43c-16.85-2.13-34.1-15.32-31.36-20.5,8.32,4.47,18.87,5.89,23.54,7.82s16.65,2.64,19.39,4.06S280.42,927.82,280.42,927.82Z"/><path d="M308,914.12c-9.54-1.22-28-16.24-28-16.24a33.43,33.43,0,0,1-15.83-.51C273.32,905.39,299.4,916.45,308,914.12Z"/><path d="M347.3,924.27s-19.33-8.45-23.44-9.84l-14.57-4.88S312.49,927.06,347.3,924.27Z"/><path d="M375.54,908.38s-3.5,1.45-4.57,2.51c-4.56-2.66-11-4.26-13.7-6s-16.06-10.41-16.06-10.41a125.72,125.72,0,0,0,24.89,7.21Z"/><polygon points="384.24 904.88 379.73 906.66 372.42 902.9 384.24 904.88"/><path d="M102,839.06c2.09-.12,4.14-.29,6.08-.56a53.89,53.89,0,0,0,12.75-3.18,24.28,24.28,0,0,0,8-5.46l-2,3.17s56.83-6.6,60,25.12c-4-7.87-12-19.34-54.35-19.79,32.12,5.93,50.39,11.87,46.89,31.2,0-7.76-11.12-17.2-28.78-21s-30.9-6.31-48-4.6l-.58,0A24,24,0,0,0,102,839.06Z"/><path d="M157.39,820.58c13.62,2,30.07,11.94,32.81,21.07-7.62-8.22-20.95-15.5-38.26-15.18C151.94,826.47,158.28,825.68,157.39,820.58Z"/><path d="M180.66,822.88c3.85,1.72,14.48,10.76,17,21.87s6.69,10.81,4.49,17.89c3.12-4.65,1.44-7.77-1.6-14.92s.07-12-8.68-20.67l-1.88.29a14.43,14.43,0,0,0-8.15-6Z"/><path d="M239.63,839.66A32.69,32.69,0,0,1,246.5,845a17.41,17.41,0,0,1,4.36,7.6,18.32,18.32,0,0,0-2.91-8.71,35.62,35.62,0,0,0-6.11-7.13Z"/><path d="M265.91,839.42c3.52,2.28,5.5,6.42,2.38,10.86s-7,9-6.24,12.74,4.95,8.83,2.51,13.85c-.91.3.43-3.69-.78-6.24-2.23-4.7-2.9-4.47-3.1-9s4.35-9.06,4.57-13.55-5.41-9.21-11.34-9.9l1.06-1.77Z"/><path d="M272.93,838.37c5.11,1.51,22.61,9.2,19,15.21-1.68-4-5.18-7.31-15.45-10,2.66,6.16.91,9.36-1.75,13s-6.09,7.57-5.86,10.62-2.14,2.79-2.14,4.36v4.77l-.53-.38s.08-3.5,0-4.94,1.75-1.91,1.75-3.73,2.36-8.82,5.79-15.38-5.84-12.18-5.84-12.18Z"/><path d="M254,879.93a24.67,24.67,0,0,0,2.89-5,30.3,30.3,0,0,0,1.78-5.3,20.22,20.22,0,0,0,.6-5.53,7.81,7.81,0,0,0-1.85-5.08,7.36,7.36,0,0,1,.94,5,19.31,19.31,0,0,1-1.42,5,28.59,28.59,0,0,1-2.46,4.56,21.66,21.66,0,0,1-3.18,3.85Z"/><path d="M363.58,864.45c5.87,2.37,11.28,6.33,12.95,8.31,8.75,1.14,11.8,9.13,11.8,9.13s-11.72-3.36-18.12-8.72a18.41,18.41,0,0,1,3.38-.26l-6-3Z"/><path d="M370.64,880.57c-2.53-3.75-9.38-7.1-17.25-6.08C358,875.61,370.64,880.57,370.64,880.57Z"/><path d="M501.75,864.52a7.8,7.8,0,0,0,2.5.13c.77-.07,1.51-.2,2.25-.31,1.48-.24,2.94-.5,4.4-.78,2.91-.57,5.8-1.19,8.68-1.91l-8.85-.39c-1.47-.06-2.94-.11-4.39-.21l-2.15-.15a13.12,13.12,0,0,0-1.9,0Z"/><path d="M198.62,826.74c0,3.65,10.66,7.91,12.58,12.48s.82,8.68,0,11.67a44.7,44.7,0,0,0-.76,13c.46,3.35-.3,4.76-2.09,6.39a10.2,10.2,0,0,0-2.51,3.66h-1.6a11.5,11.5,0,0,1,3.16-4.42c2-1.56,2-3.38,1.79-5.67s-.37-9.65.44-13.25.66-8.33-3-10.76-13.15-9.34-14.82-11.72l-.66-1.42Z"/><path d="M208.67,827.14c5.12-.13,7.18-.52,10.68,4s4.87,6.71,2.43,13.64-3.95,8.07-5.1,7.84-1.82-2.89.54-9.74.52-11.59-1.38-13-9.46-2.87-9.46-2.87Z"/><path d="M107,837.21c-7.3.37-16.37-3-16.37-3s1.71,9.94,13.58,9.57l5.15-3Z"/><path d="M141.18,831.52a8.7,8.7,0,0,0-.1-3.76,11.34,11.34,0,0,0-1.6-3.5,14.19,14.19,0,0,0-2.56-2.91,11.92,11.92,0,0,0-1.59-1.18,9,9,0,0,0-.93-.5c-.17-.08-.4-.15-.6-.22a2.27,2.27,0,0,0-1-.05,3.41,3.41,0,0,0-1.25.54,9,9,0,0,0-.87.65,10,10,0,0,0-1.38,1.52,6.54,6.54,0,0,0-.58,1,2.63,2.63,0,0,0-.23.88,1.59,1.59,0,0,0,.29.88,2.91,2.91,0,0,0,.3.31,8,8,0,0,0,1.74,1.05c1.08.56,2.16,1,3.19,1.63a10.41,10.41,0,0,1,2.87,2.09,7.65,7.65,0,0,0-2.16-3.06,29.51,29.51,0,0,0-2.92-2.28,13.12,13.12,0,0,1-1.26-1s0,0,0,0a.72.72,0,0,1,.14.47c0,.15,0,.07.05,0a3.67,3.67,0,0,1,.41-.54,8.33,8.33,0,0,1,1.12-1.1,5.15,5.15,0,0,1,.59-.43,1.42,1.42,0,0,1,.39-.19c.05,0-.13,0-.08,0a2.56,2.56,0,0,0,.26.09c.21.1.43.21.67.35a15.31,15.31,0,0,1,1.37.9,17.32,17.32,0,0,1,2.5,2.27A12.9,12.9,0,0,1,141.18,831.52Z"/><path d="M94.74,879.15c4.63-1.82,8.62-3,17.12-2.16s9.12,1.59,9.12,1.59l13.5,1.54s17.35,18.52,47.34,28c4.11,7.61,27.56,12.33,27.56,12.33s-22.1-13.68-35.17-28.93c0,0,27.56,7.92,32,7.92a7.58,7.58,0,0,0,6.39-3.35s31.82,8.53,58.31,13.7c-13.7-9-18.27-16-21.92-17.5S234,882.81,234,882.81l2.44-1.22a90.51,90.51,0,0,0,34.91,10.91L258,879.71,261,880l21.11,13.6L280.83,884l-2.76-1.66s5.1-.19,6.36-1.79c5,4.82,17.76,12.28,25.22,14.06-8.83-.25-25.58-8.83-25.58-8.83s.66,9.39,18.63,17.91,28,11,28,11a87.85,87.85,0,0,1-13.25-14.31c6.4,4,18.42,14.92,35.47,16.75-8.06-12.48-11-15.38-15.22-17.66s-8.07-4-8.07-4-12.48,1.22-18.19-6.24c9.06,3.43,18.42,4.87,22.84,3.43s5.63-1.45,10.5.76,18.27,5.4,18.27,5.4l19.64,2.36-11.12-8.37-6.39-.31L360.62,890s23.93,3.19,33.06-.3C380.08,889.56,355,887,355,887s-13.3-5.89-17.26-12.08c.61,4.87,6.5,11.52,6.5,11.52s-11.67-2.59-15.43-12.84c-1.42,2.34,1.32,9.75,1.32,9.75a28.63,28.63,0,0,1-15.22-15.23c-1.93,4.77,3.75,13.5,3.75,13.5S314,881,311,882s-3.61.84-8.34.65c-2.82-.12-10.2-5.75-15.83-4.91s-3.73,1.44-6.62,2-3.81,1.45-4.34,1.3.3-2.16.3-2.16-2.31.1-6.67-2.44-13.9-.3-16.85-.3-10.15-1-10.15-1,7.82-12.79-2.23-20.85c2.33,5.83,3.55,14.16-3.35,20-1.93-1.42-5.48,0-5.48,0s1.83-13.5-10.35-24.05c3,7.51,6.09,16.24-6,22.84-2.64-1.93-10.05.1-10.05.1s-1.52-8.33-16-7.51a43.71,43.71,0,0,0-24.16,9.13s-6.09,3.76-9.84-.3-12.89-15.94-28.93-17c9.85,4.77,21.42,15.12,21.42,15.12l-4.57-.51s-17.15-14.61-44.15-11.77c11.88,2.84,25.38,10.25,25.38,10.25S91.65,872.3,94.74,879.15Zm117.53,3.2c9.29,4.87,24.81,10.5,31.84,11.27C232.12,897.6,220.34,889.51,212.27,882.35ZM138.74,881s12.64,2.44,14.46,2.44,8.22,3.8,8.68,3.8,5.18,7.92,5.18,7.92C157,891.79,138.74,881,138.74,881Z"/></svg>