<svg xmlns="http://www.w3.org/2000/svg" viewBox="0 0 595.34 927.82"><defs><style>.cls-1{opacity:0.75;}</style></defs><g id="Слой_2" data-name="Слой 2"><g id="Начать_игру" data-name="Начать игру"><g class="cls-1"><path d="M228.76,0a10.86,10.86,0,0,1,1.93,4.63c.25,1.56.31,3.13.47,4.69l.85,9.4c.59,6.26,1.1,12.52,1.61,18.79s1,12.53,1.42,18.8.85,12.54,1.27,18.81c1.61,25.08,3.21,50.16,5,75.22s3.64,50.12,5.74,75.14c1.05,12.51,2.23,25,3.38,37.49l2,18.7,2.27,18.62-7.23,1c-.86-6.26-1.81-12.51-2.59-18.78l-2.18-18.79L240.79,245l-1.68-18.81C237,201.08,235,176,233.51,150.87s-3.09-50.22-4.35-75.34c-.3-6.28-.61-12.56-.84-18.85s-.48-12.57-.61-18.86-.3-12.57-.34-18.87l-.1-9.44c0-1.57-.09-3.14,0-4.72A10.6,10.6,0,0,1,228.76,0Z"/><rect x="153.06" y="250.84" width="7.31" height="76.23" transform="translate(-10.75 6.09) rotate(-2.15)"/><path d="M168.26,45.47a231.08,231.08,0,0,1,5.51,34.07c.64,5.7,1.27,11.4,1.85,17.1l1.79,17.1L180.78,148l3.52,34.22Q188,216.42,192,250.56q2.05,17.07,4.32,34.09c.8,5.66,1.47,11.36,2.37,17l1.3,8.45,1.52,8.31-7.15,1.53-1.62-8.61-1.36-8.56c-1-5.7-1.65-11.4-2.49-17.1q-2.26-17.1-4.27-34.21-4-34.22-7.61-68.47l-3.53-34.26q-1.77-17.13-3.33-34.28c-1-11.44-1.86-22.9-2.55-34.37-.33-5.74-.7-11.47-.63-17.24A108,108,0,0,1,168.26,45.47Z"/><path d="M37.35,744.87a2.45,2.45,0,0,1-2.3-3.26c2.38-6.68-1.27-17.88-4.12-23.36-3.27-6.27-10.7-17.49-16.71-20.94A2.39,2.39,0,0,1,13,695.69a2.43,2.43,0,0,1,.44-2c4.36-5.82,9.89-5.14,17.54-4.19a102.47,102.47,0,0,0,22.18.79c23.87-1.86,32-13.47,35.47-18.42a2.4,2.4,0,0,1,2.19-1,2.46,2.46,0,0,1,2,1.36L120,728.45a2.43,2.43,0,0,1-3.12,3.31c-5.54-2.27-12.35-3.42-20.26-3.43h-.14c-21.52,0-45.83,8.3-57.81,16.14A2.46,2.46,0,0,1,37.35,744.87Zm-18.15-50c7,5.56,13.79,16.82,16.05,21.15s5.77,13.63,5.42,21.64c13.54-7.3,35.86-14.19,55.81-14.19h.15a65.69,65.69,0,0,1,16.49,1.94L90.22,678c-6.24,7.72-16.34,15.65-36.64,17.22a107.37,107.37,0,0,1-23.16-.81C24.35,693.63,21.4,693.37,19.2,694.85Z"/><path d="M117.81,729.51l-21.18-3.62h0s-10.51-19.53-2.13-44.67Z"/><path d="M30,691.87c5,10.24,18.76,32.36,55.5,24.44-26.59-6.69-39.91-8.78-50.71-23.87Z"/><path d="M41.3,693a39.56,39.56,0,0,0,11,7.24,62.58,62.58,0,0,0,12.5,4l3.23.65,3.26.51c1.09.21,2.19.28,3.29.42s2.19.27,3.3.35c4.41.46,8.86.55,13.36.86a73.91,73.91,0,0,1-13.46,1,68.27,68.27,0,0,1-13.5-1.45,48.31,48.31,0,0,1-12.83-4.68A28.73,28.73,0,0,1,41.3,693Z"/><path d="M29.28,709a18,18,0,0,1,7.42,3.1,37.37,37.37,0,0,1,6,5,51.16,51.16,0,0,1,5,5.85,42,42,0,0,1,4,6.55c-2-1.64-3.84-3.34-5.7-5s-3.69-3.35-5.54-5-3.75-3.16-5.67-4.58a29.3,29.3,0,0,0-6-3.55Z"/><path d="M111,750.21a3.65,3.65,0,0,1-.22-7.3l67.66-4.13a3.66,3.66,0,0,1,.45,7.3l-67.66,4.12Z"/><path d="M109.34,511.77a3.17,3.17,0,0,1-1.72-.51L18.31,453.43a3.18,3.18,0,0,1-1.06-4.16h0A3.18,3.18,0,0,1,21.5,448l90.4,48.08a3.17,3.17,0,0,1,1.66,3.14L112.47,509a3.12,3.12,0,0,1-1.78,2.5A3.2,3.2,0,0,1,109.34,511.77ZM30.06,456.68l78.87,51.08,1-8.62Z"/><path d="M126,745.9a2.42,2.42,0,0,1-2.08-1.17C66.53,651,28.39,492.5,22.7,456a2.43,2.43,0,0,1,3.73-2.42l85.31,55.24a2.44,2.44,0,0,1,1,1.27l77.41,228.75a2.46,2.46,0,0,1-.29,2.14,2.4,2.4,0,0,1-1.87,1.07L126.1,745.9ZM28.44,460.72c8,44.26,44.78,191,98.83,280.22l57.23-3.52L108.39,512.48Z"/><path d="M187.83,739.65l-45,2.78c-25.3-62.45-31.3-134.81-10.23-166Z"/><path d="M117.6,603.61c-12.66,27.86-10.83,79.31-3.22,100.63,0-34.1.73-60,7.37-87.71Z"/><path d="M106.47,591.89c-1.1,8-1.92,15.87-2.5,23.79s-.83,15.83-.89,23.74.14,15.82.67,23.72,1.44,15.79,2.72,23.74A94.86,94.86,0,0,1,100,663.57a148.26,148.26,0,0,1-1.77-24.18,158.74,158.74,0,0,1,2-24.15A107,107,0,0,1,106.47,591.89Z"/><path d="M273.92,445.13,66.86,366.76c.51,30.63,8.71,78,21,129.61,40.82-5,132.63-8.74,183.09,34-3.36,2.77-8,8.68-13.19,17.23-17.65,15-54.49,63.15-56.92,152.06,10-43.72,19.56-89.06,42.05-122.91-17.84,41-34.8,104-28,173l.07.44,81.43-8.42Z"/><path d="M181.24,756.18a2.42,2.42,0,0,1-1.94-1c-30.5-40.16-71.1-163.05-93.8-258.29C72.39,442,64.91,395.76,64.42,366.8a2.45,2.45,0,0,1,3.3-2.32l207.06,78.38a2.42,2.42,0,0,1,1.57,2.09l22.53,296.7a2.45,2.45,0,0,1-2.18,2.61L181.49,756.17ZM69.39,370.32c1,28.79,8.35,73.1,20.84,125.49,22.39,93.89,62.13,214.63,92.13,255.37l111.48-11.53L271.61,446.86Z"/><path d="M150.76,701.82c-32.7-85.27-18.62-179.77-10.43-209l4.69,1.32C137,522.93,123.08,616,155.31,700.08Z"/><path d="M185.48,753c-28-102.6-19-213.61-6.18-263.19L184,491c-8.81,34-24.87,147,6.17,260.69Z"/><path d="M222.49,665.81c-16.42-48.69-12.32-130.18-5.88-170.12l4.81.78c-6.37,39.47-10.45,119.93,5.69,167.78Z"/><path d="M253.58,439.65a3,3,0,0,1-1.1-.2L47.82,360a3,3,0,1,1,2.2-5.67l204.66,79.49a3,3,0,0,1-1.1,5.88Z"/><path d="M213.41,595.54a51,51,0,0,0-3.79,7.89c-1.09,2.69-2,5.46-2.88,8.23-1.73,5.56-3.13,11.21-4.4,16.88s-2.34,11.38-3.21,17.13-1.7,11.5-2.23,17.28-1,11.56-1.23,17.36-.24,11.6-.08,17.4a153.1,153.1,0,0,0,4.81,34.54c-5-10.7-7.45-22.52-8.6-34.29a162.17,162.17,0,0,1-.74-17.77c.08-5.92.45-11.84,1-17.73a204.25,204.25,0,0,1,6.61-34.85,144,144,0,0,1,5.84-16.77c1.21-2.71,2.42-5.41,3.89-8A41.85,41.85,0,0,1,213.41,595.54Z"/><path d="M265.4,724.64a2.49,2.49,0,0,1-1.13-.28,2.44,2.44,0,0,1-1.26-1.67c-21.23-103.84-12-284.4-11.86-286.21a2.44,2.44,0,0,1,4.63-.93c.27.57,27.75,57.73,52.94,112.12,18.53,40,31.2,68.53,37.65,84.72,17.35,43.6,39.22,73.26,43.56,78.92a3.13,3.13,0,0,1,1.3,2.5,2.44,2.44,0,0,1-4.34,1.53s-.11-.13-.27-.35c-8.78-3.85-95.44-1.33-120.25,9.44A2.39,2.39,0,0,1,265.4,724.64Zm-9.82-278.23c-1.57,38.48-6,182.8,11.63,272.46,25.06-8.93,92.16-12.38,115.21-9.55a365.62,365.62,0,0,1-40.58-75.12c-6.41-16.12-19-44.54-37.54-84.49C285,507.94,264.25,464.52,255.58,446.41Z"/><path d="M312.79,627.81a37.52,37.52,0,0,0-1.51,9.93c-.16,3.33-.07,6.67.05,10,.32,6.67,1,13.33,1.78,20S315,681,316.17,687.56c.65,3.29,1.32,6.57,2.16,9.82a60.18,60.18,0,0,0,3.15,9.6,36.18,36.18,0,0,1-5.41-8.81,82.27,82.27,0,0,1-3.59-9.69,119.9,119.9,0,0,1-4.21-20.17,111.69,111.69,0,0,1-.73-20.61,67.51,67.51,0,0,1,1.38-10.28A27.08,27.08,0,0,1,312.79,627.81Z"/><path d="M388.79,713.82c-17.86-3.5-36.84-3.92-56.63-2.09,0,0-20.58-43.12-26.88-119.44-1.75-21.28-.9-34.94,1.23-43.6,15.46,33.38,30.18,66,37.6,84.61C363.74,682.62,388.79,713.82,388.79,713.82Z"/><path d="M303.61,640.45c-.48,5.66-.38,11.29-.33,16.94s.21,11.29.42,16.93.39,11.29.6,16.94.44,11.28,1,16.93a101.74,101.74,0,0,1-2.88-16.8c-.6-5.65-.93-11.32-1.13-17s-.17-11.36.12-17A81.65,81.65,0,0,1,303.61,640.45Z"/><path d="M295.69,640.45a96.1,96.1,0,0,1-.44,19.48,189,189,0,0,1-3.1,19.22c-.73,3.17-1.45,6.33-2.3,9.47-.42,1.57-.89,3.13-1.36,4.69l-.71,2.33L287,698a91,91,0,0,1-3.6,9.1l-1,2.21c-.39.72-.78,1.44-1.18,2.15a36,36,0,0,1-2.68,4.09,127.59,127.59,0,0,0,5.76-18.36c.77-3.12,1.56-6.22,2.24-9.36s1.43-6.26,2.09-9.39l1-4.71,1-4.72c.67-3.14,1.26-6.3,1.88-9.45C293.64,653.19,294.83,646.89,295.69,640.45Z"/><path d="M265.4,722.2s13.09-35,14.46-75.51c4.41,20.4-3.19,70.35-4.72,75.14Z"/><path d="M421.24,237.65a4.25,4.25,0,0,0-5.23-3L74.59,328.24a4.26,4.26,0,0,0,1.13,8.37,4,4,0,0,0,1.13-.15l341.41-93.57A4.26,4.26,0,0,0,421.24,237.65Z"/><path d="M434.22,317.23c-16-4.16-56.71-8-68,13.41-36.84,6.79-38.63,14.71-25.25,15.62s69.1,2.2,69.1,2.2l21.92-.34,32.88.87S443.32,330.71,434.22,317.23Z"/><path d="M282.36,363.05q-6.78,1.41-13.61,3a488.07,488.07,0,0,0-69,21.94h0c-72.31,28.67-128.29,67.25-128.29,67.25-.15-1.29-.27-2.6-.37-3.95a165.67,165.67,0,0,1,.38-26c4.26-15,10.13-22.33,14.4-22.33S180,361,282.36,363.05Z"/><path d="M71.46,457.69a2.39,2.39,0,0,1-1-.22A2.43,2.43,0,0,1,69,455.53a156.18,156.18,0,0,1,0-30.43C72.15,388.37,85.12,341.22,98,320a2.41,2.41,0,0,1,1.44-1.08l297.66-81.59a2.42,2.42,0,0,1,3,1.71c21.06,77,65.69,107.63,66.14,107.93a2.43,2.43,0,0,1-1.53,4.45c-.85-.06-86.41-5.85-181.79,14l-.11,0c-4.42.92-8.94,1.92-13.45,3C168.65,391.78,73.79,456.61,72.84,457.26A2.4,2.4,0,0,1,71.46,457.69Zm30.17-134.34C90.75,342,77.16,386.93,73.9,425.51A163.64,163.64,0,0,0,73.5,451c18-11.83,104-66.22,194.7-87.29,4.58-1.06,9.18-2.08,13.66-3l.11,0c79.37-16.51,152-15.38,175.28-14.46C444,334.93,413.17,303.4,396,242.67Z"/><polygon points="400.72 250.22 345.54 262.82 399.44 245.52 400.72 250.22"/><path d="M94.73,331.56c22.88-6.27,60.76-17.58,100.65-17.88-27.91,10.55-53.28,32.68-63,43.43,26.19-18.26,68.41-41.2,86.07-46.28l-43.24,33.9s74.09-45.47,81-48.31,9.54,1,9.54,1,29.14-14.7,34.06-16.89,32.76-9.78,68.06-32.68L100,321.26Z"/><path d="M89.12,396.19a35.07,35.07,0,0,1,4.48-12.46,78.43,78.43,0,0,1,7.58-10.89c1.42-1.69,2.86-3.35,4.35-5s3-3.18,4.59-4.73c3.12-3.1,6.3-6.13,9.61-9a244.37,244.37,0,0,1,20.63-16.26,159.4,159.4,0,0,1,22.44-13.54c-7.33,4.74-14.26,10-21.05,15.4s-13.39,11-19.74,16.92c-3.16,3-6.32,5.92-9.34,9s-6,6.24-8.8,9.48-5.61,6.51-8.14,10A55.11,55.11,0,0,0,89.12,396.19Z"/><path d="M416.3,321.72A152.47,152.47,0,0,1,398,305.45a240.59,240.59,0,0,1-16-18.16,240,240,0,0,0,18,15.91,147.2,147.2,0,0,0,19.55,13.39Z"/><path d="M428.79,321.5a103.23,103.23,0,0,1-9-9.9q-4.14-5.09-8-10.34-7.77-10.47-15-21.28,8.45,9.88,17.3,19.33c3,3.14,6,6.22,9.05,9.2a95.87,95.87,0,0,0,9.49,8.3Z"/><path d="M239.52,731.54a5.79,5.79,0,0,1-.38-11.58l153.35-9.61a5.87,5.87,0,0,1,6.25,5.41,5.67,5.67,0,0,1-1.42,4.16,5.93,5.93,0,0,1-4.08,2l-153.35,9.61ZM392.85,714h-.14l-153.34,9.61a2.14,2.14,0,1,0,.15,4.28h.25L393,718.27a2.29,2.29,0,0,0,1.57-.76,2,2,0,0,0,.51-1.51h0A2.22,2.22,0,0,0,392.85,714Z"/><path d="M396.91,715.88a4,4,0,0,1-3.78,4.21l-93.38,5.85-1-1.71c12.17-.91,76-5.27,76-6.5s1-2.76-5.35-2.37c-1.23.07-1-.6.17-1.75l23-1.43A4,4,0,0,1,396.91,715.88Z"/><path d="M61.1,467.06a6.71,6.71,0,0,1-1.79-13.17l7.39-2L481.12,338.19a6.7,6.7,0,0,1,3.55,12.93h0l-27.51,7.54-.22.08L73.63,463.88l-.17,0-10.59,2.91A6.91,6.91,0,0,1,61.1,467.06ZM482.88,342.83a2,2,0,0,0-.48.06L60.61,458.59a1.84,1.84,0,0,0-1.28,2.26,1.86,1.86,0,0,0,2.29,1.26l10.69-2.93.18,0,382.93-105,.22-.07,27.72-7.6a1.86,1.86,0,0,0,1.29-2.26A1.83,1.83,0,0,0,482.88,342.83Z"/><polygon points="233.37 417.52 214.27 413.92 382.02 367.91 399.98 371.82 233.37 417.52"/><path d="M484,348.78l-27.73,7.59s6.85-3.19,6.78-10.7l18.69-5.13a4.27,4.27,0,0,1,2.26,8.24Z"/><path d="M73,461.53,63,464.25a10.75,10.75,0,0,1-1.53-3.8,20.5,20.5,0,0,1-.38-4.53l6.22-1.7C65.05,456.3,65.54,462.29,73,461.53Z"/><path d="M463.88,670.79l-10.23,6-13.79-15S409,654.53,373.58,647c-16.24-14.28-22.41-35.6-21.61-53.86,1,7.86,9.82,25.75,10.38,26.87-.41-1.37-9.45-31.47-7.68-62.57C378.93,594.13,413.82,633,463.88,670.79Z"/><path d="M453.66,679.17a2.43,2.43,0,0,1-1.8-.79l-13.29-14.47c-4.89-1.13-33.52-7.72-65.5-14.56-35.14-7.52-80.4-16.63-96.51-17.28a2.42,2.42,0,0,1-2.22-1.69c-15.21-47.8-23.25-110.81-23.25-182.2a1349.83,1349.83,0,0,1,7.67-139.47c-1.89-6.91-23.78-88.53-20.86-137.95a2.44,2.44,0,0,1,4.85-.15c.05.42,5.13,41.83,11.7,66.87,21.27,81,34.5,111.89,48.95,135.43a2.38,2.38,0,0,1,.33,1.63c-.12.83-11.59,83.83,53,181.53,26.95,40.79,63.51,78.74,108.65,112.78a2.43,2.43,0,0,1-.24,4l-10.23,5.94A2.46,2.46,0,0,1,453.66,679.17ZM278.48,627.3c17.72,1.17,61.45,10,95.61,17.29,35,7.48,66,14.67,66.32,14.75a2.45,2.45,0,0,1,1.24.72l12.47,13.59,5.38-3.13c-44.25-33.8-80.19-71.39-106.87-111.77-34.28-51.88-47.07-99.32-51.76-130-4.57-29.89-2.62-49.67-2.08-54.06-14.5-23.82-27.85-55.23-49.05-136-1.53-5.85-3-12.57-4.32-19.45,5.75,43.66,18,88,18.16,88.61a2.5,2.5,0,0,1,.07.94A1340.82,1340.82,0,0,0,256,448.18C256,518.28,263.74,580.16,278.48,627.3Z"/><path d="M285.27,619c6.26-28.17,5.09-69.47,5.09-69.47s-6.09,57.24-16.44,71l2.74,9,3,.23-.1.19,5,.27c5.72-7.84,17.41-39.25,20.66-62.9C301.42,584.73,291.59,606.26,285.27,619Z"/><path d="M342.53,590a38.93,38.93,0,0,0,1,6.18c.42,2,.94,4,1.46,6,1.09,4,2.27,8,3.61,11.92.65,2,1.36,3.91,2.11,5.84s1.53,3.84,2.37,5.72a52.67,52.67,0,0,0,2.87,5.47,16.88,16.88,0,0,0,4,4.7,13.89,13.89,0,0,1-4.95-4,37.67,37.67,0,0,1-3.59-5.3,69.13,69.13,0,0,1-5.09-11.65,83.92,83.92,0,0,1-3.15-12.29,57.69,57.69,0,0,1-.8-6.3A24.46,24.46,0,0,1,342.53,590Z"/><path d="M277.47,527.54a75.49,75.49,0,0,1,3,16.51c.27,2.79.36,5.58.47,8.38s0,5.58,0,8.38a155.55,155.55,0,0,1-1.35,16.69,112.48,112.48,0,0,1-3.35,16.42c.07-5.61.3-11.14.51-16.66l.54-16.56c.11-2.75.16-5.51.21-8.27l.14-8.27C277.7,538.64,277.7,533.13,277.47,527.54Z"/><polygon points="263.57 307.85 276.05 359.58 258.89 309.2 263.57 307.85"/><path d="M444.12,663.44a3.64,3.64,0,0,1-.56-.05L268.12,630.81a3,3,0,1,1,1.11-6L444.67,657.4a3,3,0,0,1-.55,6Z"/><path d="M99.54,199.32a4.87,4.87,0,0,1-1.3-9.57L386.88,110a4.87,4.87,0,1,1,2.59,9.39L100.84,199.14A4.91,4.91,0,0,1,99.54,199.32Z"/><path d="M99.54,199.93a5.49,5.49,0,0,1-1.46-10.77l288.64-79.77A5.48,5.48,0,1,1,389.64,120L101,199.73A5.59,5.59,0,0,1,99.54,199.93Zm288.63-89.52a4.45,4.45,0,0,0-1.13.15L98.41,190.34a4.25,4.25,0,0,0-3,5.24,4.28,4.28,0,0,0,4.11,3.13,4.08,4.08,0,0,0,1.14-.16l288.63-79.77a4.26,4.26,0,0,0-1.14-8.37Z"/><path d="M336,235.22c-32.4-.63-73.15,2.05-113.74,14-1.77.53-3.51,1.05-5.24,1.6H217C132.21,277.36,89.8,325.92,88.82,327.05h0a174.15,174.15,0,0,1,1.92-35.4c15.77-44.15,50.46-79.66,86.07-99.35-28.76,21.28-51.15,41.22-64.23,76.52C114,268.15,224.67,216,336,235.22Z"/><path d="M86.71,332.6l-.34-5.39a177.05,177.05,0,0,1,1.94-35.91c7.63-52.08,33.26-106.26,33.52-106.8l.47-1,239.79-66.26-.21,3.4c0,.14-.66,15,10.3,54.7a135.36,135.36,0,0,0,11.41,28.3c11.86,21.92,26,34,26.17,34.13l3.46,2.91-11.41,3.38-.6-.12a347.49,347.49,0,0,0-38.3-4.93c-9-.72-18-1.17-27-1.34-41-.8-79,3.89-113,13.94-1.75.52-3.48,1-5.19,1.58l-.41.12c-83.08,26.06-124.95,73.35-126.7,75.35l-.11.12Zm39.05-145c-3.51,7.6-25.67,56.95-32.63,104.42A181.37,181.37,0,0,0,91,321.16c12.59-12.74,54.2-50.42,125.21-72.61l.4-.12c1.63-.52,3.27-1,4.94-1.5,34.49-10.2,73-15,114.47-14.14,9,.17,18.18.63,27.26,1.35a361.87,361.87,0,0,1,38.28,4.9l1.82-.54a142.43,142.43,0,0,1-35.92-61.87c-8.43-30.53-10.12-46.58-10.42-53Z"/><path d="M119.55,259.69a281.22,281.22,0,0,1,20-25.42,268.18,268.18,0,0,1,22.84-23,214.37,214.37,0,0,1,25.66-19.94A141,141,0,0,1,217,176.59a222.89,222.89,0,0,0-26.9,17.53,318,318,0,0,0-24.45,20.62c-7.83,7.26-15.31,14.89-22.93,22.43S127.57,252.42,119.55,259.69Z"/><path d="M408.19,239.62l-6.49,1.92a347.27,347.27,0,0,0-38.59-5c-19.77-7.61-60-11.26-60-11.26s37.45-3.07,48.71-1.54c-18.26-5.16-37.14-8.51-37.14-8.51s29.39-1.52,49.48,3.49c-13.25-7.45-32.43-11.41-32.43-11.41s31.82,1.67,44.61,7c-4.58-5.63-1.27-13,5.07-9.56C393.66,227.37,408.19,239.62,408.19,239.62Z"/><polygon points="120.65 189.36 193.54 172.33 121.91 194.07 120.65 189.36"/><polygon points="360.41 129.01 306.09 142.69 359.01 124.34 360.41 129.01"/><path d="M123.43,800c8.61,8.88,35.2,11.72,48.59,9.9l20,16-8.09,1.86s-42.1,7-79.22-8.28c-16.74-5.88-31.63-14.26-33-15.7,0,0-3.56-13.09-2-25.58H91.24l-.31-20.7h7.51s7.72,8.73,6.5,13.6c2.54-.41,4.77,1.42,2.64,3.35v6h8.63s-.82-9.14-.92-12.49,5-2.84,4.87-.1-.3,12.69-.3,12.69h9.34s2.63-6.5,5.07-7.11S189.18,775,189.18,775s2.6-2.13,5.26-2.13,46.7-.81,46.7-.81,2-6.66,7.21-9.77c0,0,16.73.91,22.61-1V762s-55.87,32.25-86.69,38S137.66,806.34,123.43,800Z"/><path d="M206.05,835.29l32.06,35.27c-72.31,3.06-143.27,3.52-147.58-6.08-8.94-19.88-13.2-56.82-13.2-56.82l-1.76-1.21c3.33,2.12,31.27,19.22,74.1,22.63,45.7,3.64,78.28-12.69,78.28-12.69l18.51-7.28,3,2Z"/><path d="M375.57,778.4l-15.42,85.18L394.79,861s18-72.22,20.68-95.07c.4-3.44,2.44-9.44,1.86-11.34-3.33-10.78-22.09,3.5-22.09,3.5Z"/><path d="M159.7,875q-11.38,0-20.94-.25c-41.28-1.06-48.67-5.25-50.45-9.22-8.22-18.3-12.47-50-13.26-56.43l-4.76-3.24a2.41,2.41,0,0,1-1-1.3c-3.14-10.26-2.18-25.79-2.14-26.44a2.43,2.43,0,0,1,2.43-2.28H88.77l-.27-18.24a2.43,2.43,0,0,1,2.33-2.46L236.67,749a2.43,2.43,0,0,1,2.54,2.56l-.47,8.37,25.11-.28a2.78,2.78,0,0,1,.86.15c.71.12,8.55.76,42.05-17.42,38.26-20.76,104.32-21,107.12-21a2.45,2.45,0,0,1,2.39,2l5.48,27.6a2.44,2.44,0,0,1-1.25,2.63l-.61.32c-3.48,26.45-21.93,104.34-22.73,107.7a2.44,2.44,0,0,1-2.17,1.87c-.79.06-80.05,6.3-156.77,9.53C207.47,874.3,181.17,875,159.7,875ZM73.75,802.28l5,3.37a2.42,2.42,0,0,1,1,1.73c0,.37,4.32,36.8,13,56.11.4.87,4.46,5.27,46.13,6.34,24.27.63,57.62,0,99.13-1.7,70.27-3,142.68-8.44,154.82-9.38,2.85-12.08,19.63-83.86,22.38-106.7a2.46,2.46,0,0,1,1.28-1.86l.13-.07-4.74-23.84c-11.44.21-69.25,2.18-102.8,20.38-32.27,17.51-42.43,18.48-45.49,17.86l-27.4.31a2.4,2.4,0,0,1-1.78-.76,2.44,2.44,0,0,1-.68-1.82l.46-8.28L93.4,759.85l.27,18.34a2.44,2.44,0,0,1-2.43,2.47H72C71.82,785.1,71.78,795.1,73.75,802.28ZM265,759.93h0Zm0,0h0Zm0,0h0Zm0,0Z"/><path d="M160.5,831.91c-27.83,0-55.11-7.21-84.27-22.09l2.21-4.33c77.06,39.31,131.51,19.15,200-13.63s101.14-37,138.87-41.93l.62,4.83c-37.31,4.84-69.53,9-137.39,41.49-31.93,15.28-63.37,29.38-96.92,34A168.06,168.06,0,0,1,160.5,831.91Z"/><path d="M415,733.06c-10.26.88-20.51,1.15-30.67,1.64-5.08.25-10.12.55-15.15,1-2.5.27-5,.59-7.49.94s-5,.73-7.44,1.29a192,192,0,0,0-29.22,8.55c-2.42.85-4.79,1.83-7.18,2.77s-4.78,1.87-7.16,2.86c-4.78,1.91-9.49,4-14.26,6,4.44-2.63,8.9-5.23,13.43-7.71s9.09-4.93,13.75-7.2A160.9,160.9,0,0,1,383.68,726a278.36,278.36,0,0,1,31-1.42Z"/><path d="M416.55,740.06c-10.23,1-20.47,1.28-30.61,1.79-2.54.09-5.05.31-7.58.43s-5,.41-7.55.6c-5,.56-10,1.21-14.92,2.18a198.74,198.74,0,0,0-29.26,8.18c-2.42.82-4.79,1.77-7.19,2.67s-4.8,1.8-7.19,2.75c-4.79,1.84-9.51,3.86-14.3,5.76,4.46-2.56,8.94-5.1,13.5-7.51s9.13-4.79,13.81-7a180.64,180.64,0,0,1,29.14-11.19,183.71,183.71,0,0,1,30.86-5.63,299.82,299.82,0,0,1,30.91-1.56Z"/><path d="M418.08,747.06c-10.21,1-20.43,1.42-30.55,1.94-2.54.1-5,.31-7.58.43s-5,.39-7.53.59c-5,.55-10,1.16-14.91,2.1a206.51,206.51,0,0,0-29.3,7.83c-2.43.78-4.81,1.71-7.21,2.56s-4.81,1.74-7.21,2.65c-4.81,1.77-9.54,3.73-14.34,5.55,4.48-2.49,9-5,13.56-7.31s9.18-4.65,13.87-6.79a186.16,186.16,0,0,1,29.19-10.83,194.35,194.35,0,0,1,30.77-5.53c10.3-1.06,20.55-1.65,30.79-1.7Z"/><path d="M419.62,754.06c-10.19,1.13-20.4,1.56-30.51,2.09l-7.56.43c-2.51.18-5,.36-7.53.59s-5,.47-7.47.86l-3.72.52c-1.25.17-2.47.42-3.71.62a215.79,215.79,0,0,0-29.34,7.49c-2.43.74-4.82,1.64-7.23,2.46s-4.82,1.67-7.22,2.54c-4.82,1.69-9.57,3.59-14.39,5.34,4.51-2.42,9-4.85,13.63-7.11s9.22-4.51,13.93-6.59a191.19,191.19,0,0,1,29.22-10.47,206,206,0,0,1,30.69-5.43c10.26-1.07,20.47-1.71,30.68-1.85Z"/><path d="M151.93,807.35c-24.63,0-38.24-9.28-38.95-9.78l2.8-4c.2.14,21,14.2,57.47,6.62,32.86-6.84,69.42-26.08,91.27-37.58,3.28-1.73,6.25-3.29,8.86-4.63l2.23,4.33c-2.6,1.33-5.56,2.89-8.82,4.61-22.07,11.62-59,31.06-92.54,38A109.48,109.48,0,0,1,151.93,807.35Z"/><path d="M393.49,757.68a104.19,104.19,0,0,0-11.3,7.62,75.83,75.83,0,0,0-9.85,9.41,120.5,120.5,0,0,0-8.57,11.3c-2.73,4-5.37,8-8.11,12.16,3.49-9.06,7.42-18.07,13.1-26.2a56.9,56.9,0,0,1,10.05-11.07,49.32,49.32,0,0,1,13-7.81Z"/><path d="M401.55,757.68A68.45,68.45,0,0,0,390.07,767a146.53,146.53,0,0,0-10.41,11.33A150.79,150.79,0,0,0,370.42,791a91.8,91.8,0,0,0-7.76,13.92A68.82,68.82,0,0,1,368,789.73a111.06,111.06,0,0,1,8-14.06A91.11,91.11,0,0,1,386.25,763c3.87-3.89,8.18-7.55,13.66-9.87Z"/><path d="M330.25,805.78c.45-7.16,4-13.55,9-13.86s9.13,11.42,6.85,26.8-14.31,12.33-14.31,12.33,3.81-.31,7.46-5.63c-4.26-8.38-1.83-26.34-1.83-26.34S333.9,799.38,330.25,805.78Z"/><path d="M198.14,833.33a289,289,0,0,1,30.46-14.89q15.42-6.57,31.11-12.21-14.4,8.38-28.22,17.57a282.69,282.69,0,0,0-26.31,19.46Z"/><path d="M202.85,840.72a251,251,0,0,1,30.42-13.67q15.4-5.84,31-10.59c-9.67,5-19.13,10.41-28.36,16a242.44,242.44,0,0,0-26.28,18.3Z"/><path d="M207.57,848.12c5-2.58,10-4.81,15.09-6.88s10.17-3.87,15.29-5.6q15.38-5.11,31-8.94c-9.74,4.44-19.25,9.31-28.51,14.5-4.62,2.62-9.16,5.33-13.58,8.16s-8.66,5.84-12.66,9Z"/><path d="M212.29,855.52c5-2.43,10-4.5,15.08-6.37s10.16-3.46,15.27-4.95c10.24-2.92,20.53-5.37,30.89-7.27-9.79,3.85-19.36,8.2-28.65,12.93q-6.94,3.58-13.59,7.54c-4.39,2.67-8.63,5.49-12.61,8.49Z"/><path d="M217,862.93A148.33,148.33,0,0,1,232.1,857q7.6-2.43,15.26-4.3t15.35-3.24c5.14-.92,10.28-1.73,15.43-2.34-4.93,1.6-9.79,3.39-14.59,5.27s-9.54,3.92-14.19,6.06-9.19,4.48-13.61,6.93a136.61,136.61,0,0,0-12.58,8Z"/><path d="M221.73,870.34a132.08,132.08,0,0,1,15.11-5.42c5.08-1.43,10.15-2.67,15.25-3.66s10.21-1.8,15.32-2.45,10.23-1.15,15.34-1.42c-5,1.28-9.84,2.77-14.66,4.39s-9.58,3.4-14.25,5.32-9.21,4-13.62,6.31A119.93,119.93,0,0,0,227.67,881Z"/><path d="M171.63,819.94a145.43,145.43,0,0,0,31.44-1.05,157.63,157.63,0,0,0,31-7.38,159.11,159.11,0,0,1-30.4,10.37A149.44,149.44,0,0,1,171.4,826Z"/><path d="M170.08,816.72a143.43,143.43,0,0,0,31.08-2.63,163.85,163.85,0,0,0,30.39-8.65,165.38,165.38,0,0,1-29.69,11.61c-5.13,1.48-10.34,2.74-15.63,3.73a126,126,0,0,1-16.1,2Z"/><path d="M168.54,813.51a114.39,114.39,0,0,0,15.38-1.18c5.14-.72,10.26-1.73,15.35-2.94s10.13-2.64,15.11-4.28a141.66,141.66,0,0,0,14.68-5.74,141.75,141.75,0,0,1-14.13,7.16c-4.84,2.13-9.79,4.06-14.81,5.79s-10.14,3.24-15.34,4.49a118.36,118.36,0,0,1-15.93,2.78Z"/><path d="M167,810.31a107.76,107.76,0,0,0,15.26-1.87c5.09-1,10.15-2.2,15.16-3.65s10-3.1,14.85-5a119.56,119.56,0,0,0,14.31-6.52,119.24,119.24,0,0,1-13.69,7.91q-7.08,3.56-14.49,6.47c-4.93,2-10,3.71-15.07,5.21a111.51,111.51,0,0,1-15.77,3.49Z"/><path d="M236.17,762.39l.61-11H222.06l-66,7.71-1.1-4.3-5.29.23,2.24,7.22,7.41,1.83,26.79-4,.2,2.75a15.1,15.1,0,0,0-1.52,13.9c2.93,8.22,7.41,0,7.41,0V766.25L249.51,765v-2.79Zm-45,.41-1.12-3.66,33.29-3.65,1.42,6Z"/><path d="M397.84,744.26a34.16,34.16,0,0,1-9.7-1.3l-.2-.07c-6.75-2.09-11-6.41-12.18-12.5a2.43,2.43,0,0,1,.65-2.19c20.8-21.13,57.73-48.37,109.78-81,45.31-28.38,88.88-52.43,105.59-61.17a2.43,2.43,0,0,1,2.49,4.17c-72.62,49-135.19,99.1-191.29,153.19a2.41,2.41,0,0,1-1.49.67C400.42,744.2,399.18,744.26,397.84,744.26Zm-8.16-5.92a31.41,31.41,0,0,0,10.55,1c45.9-44.19,96.11-85.73,152.56-126.17-18.73,10.69-41.14,23.9-64,38.23-50.2,31.42-87.47,58.8-107.93,79.27,1.16,3.67,4.06,6.23,8.65,7.62Z"/><path d="M592.91,588.23c-84.85,57.24-146.15,109.61-191.62,153.46a34.37,34.37,0,0,1-12.45-1.06l0,0s56.4-53.12,98.7-91.29C531.87,621.51,575,597.61,592.91,588.23Z"/><path d="M238.28,55.94a10.66,10.66,0,0,1,2.18,4.75l1,5,2.23,9.92c1.56,6.6,3.11,13.2,4.83,19.76S252,108.46,253.77,115s3.68,13,5.63,19.54q11.63,39,25.84,77.11T316,286.92Q332.54,324,351.85,359.8c12.85,23.83,26.63,47.17,41.63,69.7a792,792,0,0,0,48.06,65.36,610.28,610.28,0,0,0,55.16,59.42c2.45,2.33,4.86,4.71,7.35,7l7.61,6.7,7.62,6.7,1.9,1.68c.65.54,1.32,1.06,2,1.6l4,3.17,7.9,6.36c2.64,2.11,5.25,4.28,8,6.21l8.2,6,4.1,3,2,1.49,1,.75c.16.14.36.21.48.41s0,.76-.48,1.84c-.82.83-1.28,1.12-1.52,1.1s-.36-.23-.55-.33l-1-.74-2.09-1.47L549,602.77l-8.37-5.89c-2.83-1.9-5.48-4-8.18-6.13l-8.08-6.27-4-3.14c-.67-.52-1.35-1-2-1.57l-2-1.66-7.78-6.63-7.8-6.63c-2.55-2.26-5-4.62-7.52-6.93A604.3,604.3,0,0,1,437,498.6a783.09,783.09,0,0,1-48.67-65.71c-15.09-22.71-29-46.21-41.85-70.2s-24.79-48.53-35.8-73.43-21-50.25-30.17-75.88-17.32-51.61-24.66-77.81c-1.85-6.54-3.58-13.12-5.32-19.7s-3.38-13.17-4.92-19.8-3.06-13.25-4.52-19.9l-2.07-10-.95-5A10.61,10.61,0,0,1,238.28,55.94Z"/><path d="M362.37,504.81A145.64,145.64,0,0,1,360.1,520c-1,5-2.19,10-3.56,14.91a137.53,137.53,0,0,1-5,14.54,52.8,52.8,0,0,1-7.49,13.4,94,94,0,0,0,5.71-14.07c1.58-4.8,3-9.65,4.39-14.54s2.7-9.77,4.06-14.67S360.92,509.71,362.37,504.81Z"/><path d="M499.94,607.72a2.81,2.81,0,0,1-.49-.05c-1.36-.27-135.87-27.36-174.64-27.36h-1.22a2.51,2.51,0,0,1-2.23-1.36c-35.19-71.58-44.83-245.5-27.74-332.39a2.44,2.44,0,0,1,4.74-.16c.1.37,7.91,27.64,71.17,146.07,63.71,119.26,131.68,210.44,132.36,211.34a2.44,2.44,0,0,1-1.95,3.9ZM325.07,575.44c35.19.1,142,20.84,169.19,26.23-15.12-20.81-73.68-103.3-129-206.9-45.64-85.44-62.46-123.31-68.45-138.38C282.21,344.45,292,506.21,325.07,575.44Z"/><path d="M319.21,568.25c2.92-12.9,5.56-58,5.56-58s3.84,57,.8,67.59h-2Z"/><path d="M328.43,577.94c2.88-22.13,18.41-64,17.65-74.2,2.13,23.45-.87,63.81-15.2,74.3Z"/><path d="M478,574.55c-17.63-11.43-73.4-28.74-115.67-5,21.26-4.26,26.74-4.87,51.71,6.09s54.56,23.54,54.56,23.54l31.3,6.09Z"/><path d="M342,572c12.58-11.17,20.3-18.07,63.13-19.9Z"/><path d="M289.58,306.7s11.74,76.93,19.66,100.37C300.1,341.61,299,271.28,299,271.28s11.16,53.59,34.3,98c0,0-20.06-63.06-23.12-88.47L296,247S288.87,285.08,289.58,306.7Z"/><path d="M547.84,619.29a2.84,2.84,0,0,1-.76-.1c-70.39-18.22-212.71-38.11-233-38.65a3,3,0,0,1,.16-6.08C334.69,575,477.88,595,548.6,613.3a3,3,0,0,1-.76,6Z"/><path d="M464.83,354l-4.49,39.65c-.72,6.6-1.49,13.2-2.15,19.8-.32,3.3-.7,6.59-1.05,9.89l-.91,9.9c-.36,3.3-.61,6.6-.9,9.9s-.57,6.61-.78,9.91l-.73,9.91c-.15,3.31-.34,6.61-.54,9.92-.6,13.24-.93,26.47-.46,39.81-2.49-13.12-3.24-26.54-3.34-39.89s.77-26.71,1.9-40,3-26.51,5.21-39.66S461.39,366.92,464.83,354Z"/><path d="M59.7,141.13l5.83-7.89c10-13.56,16.65-18.82,28.41-22.53l.37-.11c4.86-1.52,10.59-2.79,17.8-4.4l4.53-1c26.44-5.94,43.91-9.86,51.68-27.94l3.8-8.84,4,44.92-2.45.19c-.68.06-68.25,5.61-105.15,23.36Zm35.35-25.66c-8.08,2.59-13.38,6-19.62,13.12,34.43-13.49,83.77-18.64,95.43-19.71l-2-22.54c-10,14.36-27.75,18.35-51.15,23.6l-4.53,1c-7.27,1.62-13,2.9-17.75,4.39Z"/><path d="M172.25,97h0c-.11.38-2.79,8.44-28.95,13.79-26.78,5.48-31.66.4-48.61,2.2,5.59-1.76,12.39-3.2,21.52-5.25,27.09-6.09,46-10.12,54.35-29.57Z"/><path d="M200.54,65A72,72,0,0,1,214,60l13.61-4.1L241.21,52c4.55-1.29,9.12-2.55,13.69-3.74a3.66,3.66,0,1,1,1.86,7.07l-.16,0c-4.62,1-9.26,1.94-13.91,2.85l-13.95,2.66-14,2.5A71.11,71.11,0,0,1,200.54,65Z"/><path d="M223,28.52a2.44,2.44,0,0,1-.61-4.8l13-3.34a2.43,2.43,0,1,1,1.21,4.71l-13,3.35A2.55,2.55,0,0,1,223,28.52Z"/><path d="M249.42,267.17a4.89,4.89,0,0,1-1.35,1.71,4.51,4.51,0,0,1-1.53.83l-3.2,1c-2.12.7-4.27,1.28-6.41,1.91a124.3,124.3,0,0,1-13,2.95,3,3,0,0,1-1.24-6,124.09,124.09,0,0,1,13.11-2.48c2.22-.27,4.42-.6,6.65-.81l3.34-.34a4.32,4.32,0,0,1,1.73.15A4.78,4.78,0,0,1,249.42,267.17Z"/><path d="M0,881.54c6.43-.15,12.81-1.36,18.29-4.3a33,33,0,0,0,13-12.81,1.62,1.62,0,0,1,1.61-.79h.07a49.41,49.41,0,0,0,13.25-.08,47.57,47.57,0,0,0,12.75-3.49,35.22,35.22,0,0,0,10.82-7.19A25.09,25.09,0,0,0,76.28,842a1.94,1.94,0,0,1,2.39-1.33,2.05,2.05,0,0,1,.5.22h0l6.4,4a1.91,1.91,0,0,1,.83,1.07v0c1.32,4.28,2.65,8.58,4.06,12.79l.53,1.55.27.72.07.17s0,.05,0,0a1.3,1.3,0,0,0-.14-.26,1,1,0,0,0-.18-.23l-.14-.13c-.27-.21-.28-.18-.28-.18a6.75,6.75,0,0,0,1.18.15c.49,0,1,.05,1.54.05a62.53,62.53,0,0,0,6.5-.42,150.51,150.51,0,0,0,26-5.5c17-5.15,33.22-13,47.07-24l0,0a2.05,2.05,0,0,1,2.89.33,2,2,0,0,1,.41.93,10.23,10.23,0,0,1-.35,4.56,17.8,17.8,0,0,1-1.63,3.77,29.41,29.41,0,0,1-2.15,3.28,36.27,36.27,0,0,1-2.51,3l-.12-3a84.53,84.53,0,0,0,14.33,9.48,79.9,79.9,0,0,0,16,6.46,62.09,62.09,0,0,0,8.39,1.81,55.26,55.26,0,0,0,8.52.64,54.41,54.41,0,0,0,16.8-2.57h0a2,2,0,0,1,2.47,1.29,2,2,0,0,1-.29,1.76l-7.11,9.66-1.78-3.1c5.15-.56,10.35-1.35,15.49-2.23s10.28-1.92,15.34-3.17a143.37,143.37,0,0,0,14.95-4.39,69.53,69.53,0,0,0,13.87-6.5l0,0a1.9,1.9,0,0,1,2.16.1l3.44,2.69-2.88,2.15a11.42,11.42,0,0,1-.65-3.8,9.5,9.5,0,0,1,.75-3.85,8.76,8.76,0,0,1,2.38-3.21,7.26,7.26,0,0,1,.78-.59l.73-.5a13.21,13.21,0,0,0,1.15-.81,13.48,13.48,0,0,0,3.6-4.27,11.92,11.92,0,0,0,1.52-5.21v0a1.83,1.83,0,0,1,2.95-1.41c2.27,1.75,4.8,3.16,7.22,3.22s4.71-1.38,6.68-3.38a1.85,1.85,0,0,1,2.36-.23c1.35.91,2.69,1.84,4,2.68a9.52,9.52,0,0,0,3.67,1.63,10,10,0,0,0,4-.73c1.51-.5,3.1-1.05,4.73-1.51a34.85,34.85,0,0,1,10.17-1.48,26.42,26.42,0,0,1,10.23,2.25l-1.65,0c2.16-1.11,4.33-2.32,6.46-3.55s4.23-2.53,6.28-3.87,4.06-2.74,5.95-4.24a32.18,32.18,0,0,0,5.11-4.8l.06-.07a1.8,1.8,0,0,1,1.46-.66,9.26,9.26,0,0,1,6,2.18,12,12,0,0,1,2.07,2.28,12.8,12.8,0,0,1,1.44,2.73l-2-1.31c3.18-.24,6.31-.38,9.49-.41,1.59,0,3.18,0,4.79.08a34.8,34.8,0,0,1,4.95.54l-2,.77a19.43,19.43,0,0,1,6.37-5.38,67.61,67.61,0,0,1,7.06-3.19,25.66,25.66,0,0,0,3.15-1.52,7.53,7.53,0,0,0,1.18-.86,8.57,8.57,0,0,0,1-1.16c1.36-1.79,2.61-4.13,4.34-6.24a15.81,15.81,0,0,1,6.77-5.14,16.58,16.58,0,0,1,8.51-.76c.36.07.73.13,1.08.21l1.06.35a12.13,12.13,0,0,1,2.05.92,12.74,12.74,0,0,1,3.42,2.85,14.78,14.78,0,0,1,2.32,3.66,16.59,16.59,0,0,1,1.3,4.16,2,2,0,0,1-1.64,2.32l-.39,0h-.14c-3.1-.09-6.66.28-9.08,1.6a3.67,3.67,0,0,0-2.08,2.55,4.13,4.13,0,0,0,0,.87,1.34,1.34,0,0,0,0,.38.69.69,0,0,0,.08.32,2.29,2.29,0,0,0,.84,1.08,9.47,9.47,0,0,0,4,1.44,30,30,0,0,0,4.89.39,63.15,63.15,0,0,0,10.09-.78,2.16,2.16,0,0,1,1.85.62l0,0a35.49,35.49,0,0,0,3.23,2.89c.58.46,1.18.9,1.77,1.34l1.84,1.25a43.31,43.31,0,0,0,7.91,4c1.36.58,2.8,1,4.2,1.4a43.09,43.09,0,0,0,4.33.87,40.56,40.56,0,0,0,8.81.33h0a2.11,2.11,0,0,1,2.21,2,2,2,0,0,1-.22,1,10.38,10.38,0,0,0-.05,9.4A19.87,19.87,0,0,0,503.1,857c.38.25.76.52,1.15.75l1.22.66c.83.42,1.62.91,2.49,1.25l2.58,1.12,2.67.94,1.34.47,1.37.38,2.74.77c1.85.46,3.73.83,5.59,1.25h.07A2,2,0,0,1,525.8,867a2,2,0,0,1-1.37,1.46,78.7,78.7,0,0,0-12.25,4.64,49,49,0,0,0-5.65,3.14,14.46,14.46,0,0,0-4.28,3.87l0,.06a1.9,1.9,0,0,1-2.61.63,1.25,1.25,0,0,1-.24-.16,6.47,6.47,0,0,0-2.22-1.05,18.38,18.38,0,0,0-2.9-.58,46.07,46.07,0,0,0-6.25-.31c-2.12,0-4.26.14-6.39.32s-4.29.38-6.37.66l1.07-.6a93.14,93.14,0,0,1-7.82,7.71q-4,3.66-8.44,6.91t-9,6.1a95.51,95.51,0,0,1-9.56,5.13c2.94-2.1,5.88-4.16,8.7-6.38,1.42-1.09,2.81-2.22,4.2-3.34s2.75-2.29,4.09-3.47c2.7-2.34,5.3-4.78,7.86-7.26s5-5.08,7.3-7.69h0a1.75,1.75,0,0,1,1.06-.59c2.22-.34,4.39-.62,6.6-.82s4.42-.32,6.65-.36a51.56,51.56,0,0,1,6.77.29,22.19,22.19,0,0,1,3.49.69,9.94,9.94,0,0,1,3.61,1.78l-2.87.52a17.36,17.36,0,0,1,5.47-5.22,54,54,0,0,1,6.08-3.44,83.36,83.36,0,0,1,12.85-5l.18,3.82c-1.95-.43-3.9-.8-5.83-1.27l-2.89-.79-1.45-.4-1.42-.49-2.85-1-2.8-1.2a30.22,30.22,0,0,1-2.74-1.35l-1.35-.72c-.44-.26-.87-.56-1.31-.84a23.79,23.79,0,0,1-8.74-9.13,14.51,14.51,0,0,1,0-13.13l2,3.06a45,45,0,0,1-9.77-.37,46.17,46.17,0,0,1-4.79-1c-1.55-.49-3.13-.91-4.63-1.55a46.43,46.43,0,0,1-8.66-4.41l-2-1.37c-.65-.49-1.31-1-1.94-1.47a37.7,37.7,0,0,1-3.7-3.33l1.88.64a67.75,67.75,0,0,1-10.83.83,34.27,34.27,0,0,1-5.56-.46,13.47,13.47,0,0,1-5.77-2.22,6.51,6.51,0,0,1-2.25-3,4.22,4.22,0,0,1-.24-1,5.26,5.26,0,0,1-.1-.92,8,8,0,0,1,.11-1.75,7.23,7.23,0,0,1,1.51-3.3,8.93,8.93,0,0,1,2.62-2.15,17.2,17.2,0,0,1,5.68-1.8,29.7,29.7,0,0,1,5.67-.31l-2.16,2.35a14,14,0,0,0-1-3,11.29,11.29,0,0,0-1.69-2.7,8.58,8.58,0,0,0-5.22-3,12.47,12.47,0,0,0-6.33.54,11.75,11.75,0,0,0-5.07,3.88c-1.48,1.78-2.61,3.92-4.29,6.14a11.83,11.83,0,0,1-1.48,1.67,12,12,0,0,1-1.85,1.36,29.41,29.41,0,0,1-3.65,1.75,68.2,68.2,0,0,0-6.69,3,15.51,15.51,0,0,0-5.1,4.24v0a2,2,0,0,1-2,.75,29.53,29.53,0,0,0-4.35-.48c-1.5-.08-3-.1-4.56-.09-3.06,0-6.17.16-9.21.37a2,2,0,0,1-2-1.27l0,0a9.13,9.13,0,0,0-.95-1.78,7.62,7.62,0,0,0-1.36-1.51,5.07,5.07,0,0,0-1.62-1,5.77,5.77,0,0,0-1.83-.33l1.52-.73a36.16,36.16,0,0,1-5.76,5.42c-2,1.59-4.11,3-6.24,4.41s-4.28,2.7-6.46,4-4.38,2.47-6.65,3.64a1.9,1.9,0,0,1-1.63.05h0A22.55,22.55,0,0,0,345.1,838a30.93,30.93,0,0,0-9.09,1.3c-1.52.43-3,.93-4.59,1.46a13.43,13.43,0,0,1-5.57.88,9.27,9.27,0,0,1-2.91-.89,25,25,0,0,1-2.31-1.31c-1.44-.91-2.77-1.85-4.11-2.76l2.36-.24a17.57,17.57,0,0,1-4.08,3.14,10.77,10.77,0,0,1-5.32,1.32,12.75,12.75,0,0,1-5.16-1.34,24,24,0,0,1-4.22-2.66l2.95-1.45a15.36,15.36,0,0,1-1.95,6.95,17.13,17.13,0,0,1-4.55,5.43,15.92,15.92,0,0,1-1.45,1c-.29.18-.39.28-.58.4a4.7,4.7,0,0,0-.5.38,5,5,0,0,0-1.38,1.86,5.92,5.92,0,0,0-.44,2.37,7,7,0,0,0,.11,1.28,9.26,9.26,0,0,0,.29,1.18l0,0a1.86,1.86,0,0,1-1.12,2.38,1.88,1.88,0,0,1-1.77-.28l-3.46-2.67,2.17.08a73,73,0,0,1-14.64,6.94,146,146,0,0,1-15.32,4.55c-5.16,1.28-10.36,2.34-15.58,3.26s-10.44,1.71-15.76,2.31a2,2,0,0,1-2.15-1.72,1.9,1.9,0,0,1,.36-1.36v0l7.08-9.68,2.2,3a58.29,58.29,0,0,1-18,2.82,60.1,60.1,0,0,1-9.1-.67,67,67,0,0,1-8.9-1.88,85.68,85.68,0,0,1-16.78-6.74,88.34,88.34,0,0,1-15.15-10,2,2,0,0,1-.26-2.84l.08-.09.07-.06a31.35,31.35,0,0,0,2.16-2.6,24.83,24.83,0,0,0,1.85-2.82,13.57,13.57,0,0,0,1.26-2.91,6.08,6.08,0,0,0,.26-2.64l3.33,1.24c-14.35,11.4-31,19.44-48.44,24.73a146.76,146.76,0,0,1-26.73,5.57,69,69,0,0,1-7,.4c-.6,0-1.19,0-1.82-.06a10.19,10.19,0,0,1-2.15-.36,3.49,3.49,0,0,1-1-.55l-.08-.07-.14-.13a2.43,2.43,0,0,1-.24-.32,2.33,2.33,0,0,1-.2-.34l0-.08-.09-.22c-.13-.31-.22-.59-.32-.87l-.56-1.63c-1.42-4.32-2.71-8.61-4-12.93l.83,1.09-6.38-4.06,2.91-1.1a29,29,0,0,1-7.58,12.48,38.89,38.89,0,0,1-12,7.91,51,51,0,0,1-28,3.45l1.68-.78a37.58,37.58,0,0,1-6.44,7.68,31.4,31.4,0,0,1-8.41,5.41,33.06,33.06,0,0,1-9.55,2.47A39.4,39.4,0,0,1,0,881.54Z"/><path d="M21.06,881.44S51.66,865,56.23,867.13L68.56,863S53.38,876,40,882.05Z"/><path d="M43.34,886.51s7.1-9.23,12.78-11.77,16.44-5,23.55-4.77L57.14,885.09S47.9,885.09,43.34,886.51Z"/><path d="M81.5,873.52c-4.69,1.68-20,15.63-20,15.63S72.77,887,75.31,886c-1.32,2.14-5.59,4.37-5.59,4.37s10.86.1,14.31-1,14.62-6.19,17.51-10.45c9.69-.51,20.75-5.58,30-13.8-11.16,6.19-27,7.43-27,7.43l6.6-5.1s-14.41,3.6-19.59,5.1S82.75,873.07,81.5,873.52Z"/><path d="M103.11,879.92a17.2,17.2,0,0,1-10.2,11.67l3.61.55s2.84-3.75,9.23-3.8,14.21,1.42,20-1.83,16.44-11.57,16.44-11.57-10.76,5.43-17.26,6.09c7.62-3.3,23.24-12.68,29.64-19.92-12.1,7.54-26.19,11.19-33.57,13.78S109.89,880.68,103.11,879.92Z"/><path d="M129.91,890.37s9.89-.18,12.33.66c0,0,9-4.87,11.64-8.07C147.79,886.23,133.48,889.79,129.91,890.37Z"/><path d="M180,878.09c6.93-2.36,22.38-3.67,22.38-3.67s-19-2.88-27.25,5l-15.29,5.8c7-3.6,16.36-9.76,16.36-9.76a12.33,12.33,0,0,1-4-5c4.49.23,9.66-2.36,13.85-2.28-7.61-6.09-15.07-4-15.07-4a18.37,18.37,0,0,1-3.35-3.2c-3.2,5.33-12,9.14-18.42,11.12-3.58,5.48-10.5,11-17.05,14.31,0,0,22.89-6.12,34.56-14.14C163.8,877.33,156,882,156,882a14.42,14.42,0,0,1-2.13,5.73l-2.74,3.7,10.55.71s25-5.93,36.64-6.54l2.94-2.64A52.3,52.3,0,0,1,180,878.09Z"/><path d="M171.09,894.15s8.06.46,10.65,2.05c2.06-3.19,9.36-7.46,14.77-8.67l1-1.07Z"/><path d="M186.33,896.91l12.84-5.58s8.68,1.63,14.87.81C207.75,895.7,196.09,899.09,186.33,896.91Z"/><path d="M285.33,855.62c2.29,2.37,2.39,4.4,1.18,10s-5.08,13.1-5.08,13.1,8.93-4.77,12-14.41S291,850.61,291,850.61a11.42,11.42,0,0,0-.13,6.41l-3.71-2.51Z"/><path d="M285.15,882.13a24.69,24.69,0,0,0,6.14-4,46.44,46.44,0,0,0,5.39-5.55,54.82,54.82,0,0,0,4.55-6.4,31.65,31.65,0,0,0,3.34-7.17,32.49,32.49,0,0,1-2.25,7.72,56.53,56.53,0,0,1-3.65,7.25,49.11,49.11,0,0,1-4.79,6.73,28.78,28.78,0,0,1-6.42,5.71Z"/><path d="M420.79,874.89a65.74,65.74,0,0,1,6.58-7c2.31-2.15,4.71-4.19,7.21-6.09a72.63,72.63,0,0,1,7.81-5.21,28.94,28.94,0,0,1,8.66-3.46,28.17,28.17,0,0,0-8,4.48,69.32,69.32,0,0,0-6.89,6c-2.16,2.15-4.21,4.42-6.14,6.75a61.83,61.83,0,0,0-5.21,7.26Z"/><path d="M402,903.16c-7.92,7.91-23.49,21.61-50.77,23,6.93-4.36,21.85-10.25,21.85-10.25A61.85,61.85,0,0,1,402,903.16Z"/><path d="M314.92,927.82a129.92,129.92,0,0,1,32.28-8.43c16.84-2.13,34.1-15.32,31.36-20.5-8.33,4.47-18.88,5.89-23.55,7.82s-16.64,2.64-19.38,4.06S314.92,927.82,314.92,927.82Z"/><path d="M287.32,914.12c9.54-1.22,28-16.24,28-16.24a33.44,33.44,0,0,0,15.83-.51C322,905.39,295.94,916.45,287.32,914.12Z"/><path d="M248,924.27s19.33-8.45,23.44-9.84l14.57-4.88S282.85,927.06,248,924.27Z"/><path d="M219.8,908.38s3.5,1.45,4.57,2.51c4.57-2.66,11-4.26,13.7-6s16.06-10.41,16.06-10.41a125.72,125.72,0,0,1-24.89,7.21Z"/><polygon points="211.1 904.88 215.62 906.66 222.92 902.9 211.1 904.88"/><path d="M493.31,839.06c-2.08-.12-4.14-.29-6.08-.56a53.69,53.69,0,0,1-12.74-3.18,24.22,24.22,0,0,1-8-5.46l2,3.17s-56.84-6.6-60,25.12c3.95-7.87,12-19.34,54.34-19.79-32.12,5.93-50.39,11.87-46.88,31.2,0-7.76,11.11-17.2,28.77-21s30.9-6.31,47.95-4.6l.58,0A24.69,24.69,0,0,1,493.31,839.06Z"/><path d="M438,820.58c-13.62,2-30.06,11.94-32.8,21.07,7.61-8.22,20.94-15.5,38.25-15.18C443.4,826.47,437.06,825.68,438,820.58Z"/><path d="M414.69,822.88c-3.86,1.72-14.49,10.76-17,21.87s-6.7,10.81-4.49,17.89c-3.12-4.65-1.45-7.77,1.59-14.92s-.06-12,8.69-20.67l1.87.29a14.43,14.43,0,0,1,8.15-6Z"/><path d="M355.71,839.66a32.63,32.63,0,0,0-6.86,5.33,17.33,17.33,0,0,0-4.37,7.6,18.23,18.23,0,0,1,2.92-8.71,35.25,35.25,0,0,1,6.1-7.13Z"/><path d="M329.44,839.42c-3.53,2.28-5.51,6.42-2.39,10.86s7,9,6.24,12.74-5,8.83-2.51,13.85c.91.3-.43-3.69.79-6.24,2.23-4.7,2.89-4.47,3.09-9s-4.34-9.06-4.57-13.55,5.41-9.21,11.35-9.9l-1.07-1.77Z"/><path d="M322.41,838.37c-5.1,1.51-22.61,9.2-19,15.21,1.68-4,5.18-7.31,15.46-10-2.67,6.16-.92,9.36,1.75,13s6.09,7.57,5.86,10.62,2.13,2.79,2.13,4.36v4.77l.53-.38s-.07-3.5,0-4.94-1.75-1.91-1.75-3.73-2.36-8.82-5.78-15.38,5.83-12.18,5.83-12.18Z"/><path d="M341.38,879.93a24.67,24.67,0,0,1-2.89-5,30.3,30.3,0,0,1-1.78-5.3,20.62,20.62,0,0,1-.6-5.53A7.87,7.87,0,0,1,338,859a7.35,7.35,0,0,0-.93,5,18.56,18.56,0,0,0,1.42,5,28.54,28.54,0,0,0,2.45,4.56,21.66,21.66,0,0,0,3.18,3.85Z"/><path d="M231.76,864.45c-5.87,2.37-11.27,6.33-12.95,8.31-8.75,1.14-11.8,9.13-11.8,9.13s11.73-3.36,18.12-8.72a18.41,18.41,0,0,0-3.38-.26l6-3Z"/><path d="M224.7,880.57c2.54-3.75,9.39-7.1,17.25-6.08C237.35,875.61,224.7,880.57,224.7,880.57Z"/><path d="M93.59,864.52a7.8,7.8,0,0,1-2.5.13c-.77-.07-1.51-.2-2.25-.31-1.48-.24-2.94-.5-4.4-.78-2.91-.57-5.8-1.19-8.68-1.91l8.86-.39c1.47-.06,2.93-.11,4.38-.21l2.16-.15a13,13,0,0,1,1.89,0Z"/><path d="M396.72,826.74c0,3.65-10.65,7.91-12.58,12.48s-.81,8.68,0,11.67a44.36,44.36,0,0,1,.76,13c-.46,3.35.3,4.76,2.09,6.39A10.2,10.2,0,0,1,389.5,874h1.6a11.5,11.5,0,0,0-3.16-4.42c-2.05-1.56-2-3.38-1.78-5.67s.36-9.65-.45-13.25-.66-8.33,3-10.76,13.14-9.34,14.81-11.72l.66-1.42Z"/><path d="M386.68,827.14c-5.13-.13-7.19-.52-10.69,4s-4.87,6.71-2.43,13.64,4,8.07,5.1,7.84,1.82-2.89-.54-9.74-.52-11.59,1.38-13S389,827,389,827Z"/><path d="M488.34,837.21c7.3.37,16.37-3,16.37-3s-1.71,9.94-13.58,9.57l-5.15-3Z"/><path d="M454.17,831.52a8.54,8.54,0,0,1,.09-3.76,11.57,11.57,0,0,1,1.6-3.5,14.19,14.19,0,0,1,2.56-2.91,11.92,11.92,0,0,1,1.59-1.18,8.25,8.25,0,0,1,.94-.5,5.66,5.66,0,0,1,.59-.22,2.28,2.28,0,0,1,1-.05,3.55,3.55,0,0,1,1.26.54,10.16,10.16,0,0,1,.86.65,10,10,0,0,1,1.38,1.52,5.78,5.78,0,0,1,.58,1,2.41,2.41,0,0,1,.23.88,1.59,1.59,0,0,1-.29.88c-.09.11-.19.21-.29.31a8.28,8.28,0,0,1-1.74,1.05c-1.09.56-2.17,1-3.2,1.63a10.41,10.41,0,0,0-2.87,2.09,7.67,7.67,0,0,1,2.17-3.06,29.4,29.4,0,0,1,2.91-2.28,13.12,13.12,0,0,0,1.26-1s0,0,0,0a.72.72,0,0,0-.14.47c0,.15,0,.07,0,0a6,6,0,0,0-.41-.54,9.7,9.7,0,0,0-1.12-1.1,5.15,5.15,0,0,0-.59-.43,1.56,1.56,0,0,0-.4-.19s.13,0,.08,0-.15.05-.25.09a6.18,6.18,0,0,0-.67.35,14.13,14.13,0,0,0-1.38.9,17.86,17.86,0,0,0-2.5,2.27A12.8,12.8,0,0,0,454.17,831.52Z"/><path d="M471.22,870.58s13.49-7.41,25.37-10.25c-27-2.84-44.15,11.77-44.15,11.77l-4.57.51s11.57-10.35,21.42-15.12c-16,1.11-25.17,13-28.93,17s-9.84.3-9.84.3a43.71,43.71,0,0,0-24.16-9.13c-14.51-.82-16,7.51-16,7.51s-7.41-2-10.05-.1c-12.08-6.6-9-15.33-6-22.84-12.18,10.55-10.35,24.05-10.35,24.05s-3.55-1.42-5.48,0c-6.9-5.88-5.68-14.21-3.35-20-10.05,8.06-2.23,20.86-2.23,20.86s-7.21,1-10.15,1-12.48-2.23-16.85.3-6.67,2.44-6.67,2.44.84,2,.3,2.16-1.44-.69-4.33-1.3-1-1.21-6.63-2-13,4.79-15.83,4.91c-4.73.19-5.25.3-8.33-.65s-7.73-.33-7.73-.33,5.68-8.73,3.76-13.5a28.63,28.63,0,0,1-15.23,15.23s2.74-7.41,1.32-9.75c-3.75,10.25-15.42,12.84-15.42,12.84s5.88-6.65,6.49-11.52c-4,6.19-17.25,12.08-17.25,12.08s-25.07,2.54-38.67,2.64c9.13,3.49,33.06.3,33.06.3l-4.57,2.51-6.39.31-11.11,8.37,19.63-2.36s13.4-3.19,18.27-5.4,6.09-2.21,10.51-.76,13.77,0,22.83-3.43c-5.71,7.46-18.19,6.24-18.19,6.24s-3.81,1.68-8.07,4-7.15,5.18-15.22,17.66c17-1.83,29.07-12.79,35.47-16.75a87.85,87.85,0,0,1-13.25,14.31s10.05-2.43,28-11,18.62-17.91,18.62-17.91-16.75,8.58-25.58,8.83c7.46-1.78,20.25-9.24,25.22-14.06,1.26,1.6,6.36,1.79,6.36,1.79L314.52,884l-1.32,9.65L334.31,880l3-.31L324,892.5a90.52,90.52,0,0,0,34.92-10.91l2.43,1.22s-11.26,7.91-14.92,9.44-8.22,8.52-21.92,17.5c26.49-5.17,58.31-13.7,58.31-13.7a7.6,7.6,0,0,0,6.39,3.35c4.42,0,32-7.92,32-7.92C408.06,906.73,386,920.41,386,920.41s23.45-4.72,27.56-12.33c30-9.44,47.34-28,47.34-28l13.5-1.54s.61-.69,9.12-1.59,12.49.34,17.12,2.16C503.69,872.3,471.22,870.58,471.22,870.58Zm-120,23c7-.77,22.55-6.4,31.84-11.27C375,889.51,363.22,897.6,351.23,893.62Zm77.06,1.52s4.72-7.92,5.17-7.92,6.85-3.8,8.68-3.8S456.6,881,456.6,881,438.33,891.79,428.29,895.14Z"/></g></g></g></svg>