<svg xmlns="http://www.w3.org/2000/svg" viewBox="26.4836 27.3707 0108.3 0104.6">
  <path d="M134.77,77.67,130.3,36.8l-10.47,7.55a60.78,60.78,0,0,0-11-8.92,53.94,53.94,0,0,0-18-7,58.82,58.82,0,0,0-19.06-.52,53.78,53.78,0,0,0-17.86,6.18A54.46,54.46,0,0,0,39.29,45.9a53,53,0,0,0-9.78,52.2,51.56,51.56,0,0,0,22.83,27.14,47.48,47.48,0,0,0,16.83,6,47.15,47.15,0,0,0,17.68-.17,48.85,48.85,0,0,0,29.37-17.52,46.19,46.19,0,0,0,8.24-15.11A46.08,46.08,0,0,0,127,81.62a47.76,47.76,0,0,1-12.19,30.74,47.5,47.5,0,0,1-28.68,15.11A51,51,0,0,1,70,126.78a45.4,45.4,0,0,1-14.76-6.35,44.61,44.61,0,0,1-16.84-55A44.75,44.75,0,0,1,59,44a47.7,47.7,0,0,1,14.25-3.94,46.06,46.06,0,0,1,14.6,1.19,42.58,42.58,0,0,1,19.92,12l-10.65,7.9Z" fill="#000000"/>
</svg>