<svg xmlns="http://www.w3.org/2000/svg" viewBox="0 0 269.2 307.62"><path class="cls-1" d="M234.66,104.44c12.64-7.3,12.34-4.17,21.35-9.37S271.4,82,268.49,76.9c-1.23-2.12-3.73-3.08-6.87-3.08-4.33,0-9.89,1.8-15.1,4.81-9,5.2-6.15,6.5-18.79,13.8a9.91,9.91,0,0,0-4.27-1.17,4.68,4.68,0,0,0-3.84,1.81,104,104,0,0,0-73.89-42.73c1.65-4.26-3.52-7.28-3.52-7.28,0-14.6,2.56-12.77,2.56-23.17S141.12,0,135.28,0s-9.49,9.49-9.49,19.89,2.56,8.57,2.56,23.17c0,0-5.16,3-3.51,7.28a104,104,0,0,0-74.4,43.44,4.69,4.69,0,0,0-4.18-2.3A9.82,9.82,0,0,0,42,92.64c-12.64-7.3-9.78-8.6-18.79-13.8C18,75.83,12.43,74,8.1,74,5,74,2.47,75,1.24,77.12c-2.92,5,3.47,13,12.48,18.16s8.7,2.07,21.34,9.37h0s0,6.64,5.3,6.75a103.74,103.74,0,0,0-.73,83.22c-5.05.28-5.09,6.73-5.09,6.73-12.64,7.3-12.34,4.18-21.35,9.38S-2.2,223.83.71,228.89C1.94,231,4.44,232,7.58,232c4.33,0,9.89-1.8,15.1-4.81,9-5.2,6.15-6.5,18.78-13.79h0a9.76,9.76,0,0,0,4.27,1.17,4.68,4.68,0,0,0,3.87-1.85,104.08,104.08,0,0,0,75.23,44.61c-1.65,4.25,3.51,7.27,3.51,7.27,0,14.6-2.56,12.77-2.56,23.17s3.65,19.89,9.49,19.89,9.49-9.49,9.49-19.89-2.56-8.57-2.56-23.17c0,0,5.17-3,3.52-7.27a104,104,0,0,0,73.89-42.74,4.68,4.68,0,0,0,3.84,1.81,9.76,9.76,0,0,0,4.27-1.17c12.64,7.3,9.78,8.6,18.79,13.8,5.21,3,10.77,4.81,15.1,4.81,3.14,0,5.64-1,6.87-3.08,2.91-5.06-3.48-13-12.48-18.17s-8.71-2.07-21.35-9.37c0,0,0-6-4.58-6.69a103.6,103.6,0,0,0,0-85.36C234.63,110.46,234.66,104.44,234.66,104.44Zm-5.42,3.84a4.38,4.38,0,0,1-.5,0c-.16-.34-.34-.67-.52-1a3,3,0,0,0,1.74-.34c1.37-.79,1-3.73,1-3.73l-2.05-3.55-3.68,2.12c-1.19-2.06-2.44-4.1-3.77-6.07.52-1.22,1.15-1.48,2-1.48a6.64,6.64,0,0,1,2.82.79l1.33.76,4.14,7.16v1.54C231.74,104.58,231.7,108.28,229.24,108.28Zm0,91.06c2.37,0,2.5,3.48,2.5,3.85v1.54l-4.16,7.2-1.29.72a6.85,6.85,0,0,1-2.84.79c-.84,0-1.47-.26-2-1.48.21-.32.41-.65.62-1a3,3,0,0,0,1.17,1.35c1.37.79,3.73-1,3.73-1l2-3.56-3.67-2.12c1.19-2.06,2.32-4.16,3.37-6.3A4.38,4.38,0,0,1,229.24,199.34ZM266,229.26c-.78,1.34-2.79,1.62-4.34,1.62-3.75,0-8.85-1.65-13.64-4.42a30.7,30.7,0,0,1-7-5.22,50.76,50.76,0,0,0-10.92-8.06l.36-.62c11.12,6.51,11.85,9.07,18.05,12.65s15,6.13,16.58,3.39l-32.92-19,1.95-3.38a50.43,50.43,0,0,0,12.44,5.43,31,31,0,0,1,8,3.43C263.21,220.08,267.51,226.57,266,229.26ZM135.28,253.43a99.62,99.62,0,1,1,99.62-99.62A99.73,99.73,0,0,1,135.28,253.43Zm7.84,5.81c-.21,1.16-1.7,2.39-2.38,2.8l-1.32.77h-8.31l-1.27-.76c-.69-.42-2.19-1.65-2.4-2.81,0-.21-.13-.76.58-1.71,2.36.16,4.74.27,7.14.28V262h4.11s2.72-1.16,2.72-2.74a3,3,0,0,0-.56-1.66l1.12-.08A2,2,0,0,1,143.12,259.24Zm-7.84,45.46c-3.11,0-6.57-7-6.57-17a30.42,30.42,0,0,1,1-8.65,50.68,50.68,0,0,0,1.51-13.49h3.9v38c3.16,0,5.35-8.74,5.35-16.06,0-7.16-1.85-9.07-1.93-22h.72a51,51,0,0,0,1.52,13.49,30.87,30.87,0,0,1,1,8.65C141.85,297.73,138.39,304.7,135.28,304.7ZM45.74,211.61a6.81,6.81,0,0,1-2.82-.78l-1.33-.77-4.14-7.16v-1.54c0-.15,0-3.85,2.5-3.85a4.7,4.7,0,0,1,.63.05l.4.06c1,2.06,2,4.1,3.08,6.1L40.16,206l2.05,3.56s2.36,1.78,3.73,1A3.08,3.08,0,0,0,47.19,209c.2.33.41.64.62,1l0,.07C47.25,211.34,46.61,211.61,45.74,211.61ZM3.24,227.43c-1.55-2.69,2.75-9.18,11.41-14.18a31,31,0,0,1,8-3.43,50.43,50.43,0,0,0,12.44-5.43l1.95,3.38-32.92,19c1.58,2.74,10.24.27,16.58-3.39s6.93-6.14,18-12.65l.36.62a50.76,50.76,0,0,0-10.92,8.06,30.7,30.7,0,0,1-7,5.22c-4.79,2.77-9.89,4.42-13.64,4.42C6,229.05,4,228.77,3.24,227.43Zm37.87-119a4.69,4.69,0,0,1-.62,0c-2.37,0-2.5-3.47-2.51-3.85V103.1l4.16-7.2,1.3-.72a6.92,6.92,0,0,1,2.83-.78c.87,0,1.51.26,2,1.59l.23.55c-1.23,1.86-2.4,3.77-3.51,5.71L40.8,99.82l-2,3.55s-.36,2.94,1,3.73a3.38,3.38,0,0,0,2.54.2c-.17.35-.36.69-.54,1ZM3.77,78.58C4.54,77.24,6.55,77,8.1,77c3.75,0,8.85,1.66,13.64,4.42a30.7,30.7,0,0,1,7,5.22,50.42,50.42,0,0,0,10.92,8.06l-2,3.37L4.77,79C3.19,81.76,9.66,88,16,91.68s8.78,2.93,20,9.31l-.36.62a50.42,50.42,0,0,0-12.43-5.43,30.9,30.9,0,0,1-8-3.43C6.52,87.75,2.21,81.27,3.77,78.58Zm123.67-30.2c.21-1.16,1.71-2.39,2.38-2.8l1.32-.77h8.32l1.27.76c.69.42,2.18,1.65,2.39,2.81a2,2,0,0,1-.57,1.71L141.43,50a3,3,0,0,0,.56-1.66c0-1.58-2.72-2.74-2.72-2.74h-4.11v4.2c-2.4,0-4.78.12-7.14.28C127.31,49.14,127.4,48.59,127.44,48.38Zm7.84-45.46c3.11,0,6.57,7,6.57,17a30.87,30.87,0,0,1-1,8.65A51,51,0,0,0,139.3,42h-.72c.08-12.89,1.93-14.8,1.93-22,0-7.32-2.19-16.06-5.35-16.06V42h-3.9a50.68,50.68,0,0,0-1.51-13.49,30.42,30.42,0,0,1-1-8.65C128.71,9.89,132.17,2.92,135.28,2.92ZM261.62,76.74h0c1.55,0,3.56.28,4.34,1.62,1.55,2.7-2.75,9.18-11.41,14.18a31,31,0,0,1-8,3.43,50.43,50.43,0,0,0-12.44,5.43l-.36-.62c11.2-6.38,13.78-5.73,20-9.31S266.53,81.55,265,78.81L232,97.81l-1.95-3.37A50.76,50.76,0,0,0,241,86.38a30.7,30.7,0,0,1,7-5.22C252.77,78.39,257.87,76.74,261.62,76.74Z"/><path class="cls-1" d="M135.28,56.61a97.2,97.2,0,1,0,97.2,97.2A97.19,97.19,0,0,0,135.28,56.61Zm0,192.94A95.74,95.74,0,1,1,231,153.81,95.84,95.84,0,0,1,135.28,249.55Z"/><path class="cls-1" d="M135.28,65.21a88.6,88.6,0,1,0,88.6,88.6A88.59,88.59,0,0,0,135.28,65.21Zm0,175.74a87.14,87.14,0,1,1,87.14-87.14A87.23,87.23,0,0,1,135.28,241Z"/><path class="cls-1" d="M135.46,64.59a3,3,0,1,0-3-3A3,3,0,0,0,135.46,64.59Zm0-4.5a1.52,1.52,0,1,1-1.52,1.52A1.52,1.52,0,0,1,135.46,60.09Z"/><path class="cls-1" d="M180.05,76.63A3,3,0,1,0,179,72.56,3,3,0,0,0,180.05,76.63Zm.17-3.34a1.53,1.53,0,0,1,1.32-.76,1.45,1.45,0,0,1,.76.21,1.51,1.51,0,0,1,.56,2.07,1.53,1.53,0,0,1-1.32.76,1.44,1.44,0,0,1-.76-.2A1.52,1.52,0,0,1,180.22,73.29Z"/><path class="cls-1" d="M212.64,109.36a3,3,0,1,0,1.09-4.07A3,3,0,0,0,212.64,109.36Zm1.82-2.81a1.57,1.57,0,0,1,.76-.2,1.52,1.52,0,0,1,.76,2.83,1.45,1.45,0,0,1-.76.21,1.52,1.52,0,0,1-.76-2.84Z"/><path class="cls-1" d="M227.48,157a3,3,0,1,0-3-3A3,3,0,0,0,227.48,157Zm0-4.5A1.52,1.52,0,1,1,226,154,1.52,1.52,0,0,1,227.48,152.47Z"/><path class="cls-1" d="M216.53,197.49a3,3,0,1,0,1.09,4.07A3,3,0,0,0,216.53,197.49Zm-1.49,4.1a1.54,1.54,0,0,1-.76-.2,1.58,1.58,0,0,1-.71-.93,1.52,1.52,0,0,1,1.47-1.91,1.57,1.57,0,0,1,.76.2,1.52,1.52,0,0,1,.71.93,1.52,1.52,0,0,1-1.47,1.91Z"/><path class="cls-1" d="M181.22,230.77a3,3,0,1,0,0,6,2.94,2.94,0,0,0,1.48-.4,3,3,0,0,0-1.49-5.56Zm1.47,3.37a1.48,1.48,0,0,1-.71.93,1.52,1.52,0,0,1-1.52-2.64,1.57,1.57,0,0,1,.76-.2,1.53,1.53,0,0,1,1.32.76A1.49,1.49,0,0,1,182.69,234.14Z"/><path class="cls-1" d="M135.1,243a3,3,0,1,0,3,3A3,3,0,0,0,135.1,243Zm0,4.5a1.52,1.52,0,1,1,1.52-1.52A1.52,1.52,0,0,1,135.1,247.53Z"/><path class="cls-1" d="M90.51,231a3,3,0,1,0,1.09,4.07A3,3,0,0,0,90.51,231Zm-.17,3.34a1.53,1.53,0,0,1-1.32.76,1.48,1.48,0,0,1-.76-.21,1.52,1.52,0,1,1,2.08-.55Z"/><path class="cls-1" d="M56.83,202.33a3,3,0,1,0-1.49.4A3,3,0,0,0,56.83,202.33ZM54,200.51a1.5,1.5,0,0,1-.16-1.15,1.53,1.53,0,0,1,.71-.92,1.48,1.48,0,0,1,.76-.21,1.52,1.52,0,1,1,0,3A1.51,1.51,0,0,1,54,200.51Z"/><path class="cls-1" d="M43.08,150.65a3,3,0,1,0,3,3A3,3,0,0,0,43.08,150.65Zm0,4.5a1.52,1.52,0,1,1,1.52-1.52A1.52,1.52,0,0,1,43.08,155.15Z"/><path class="cls-1" d="M54,110.13A3,3,0,1,0,57,105a3,3,0,0,0-1.48-.4,3,3,0,0,0-1.5,5.56Zm.18-3.34a1.51,1.51,0,0,1,2.78.37,1.49,1.49,0,0,1-.15,1.15,1.53,1.53,0,0,1-1.32.76,1.57,1.57,0,0,1-.76-.2,1.53,1.53,0,0,1-.55-2.08Z"/><path class="cls-1" d="M89.34,76.85a3,3,0,1,0-2.58-1.49A3,3,0,0,0,89.34,76.85Zm-1.47-3.37a1.51,1.51,0,0,1,1.47-1.13,1.52,1.52,0,0,1,.76,2.84,1.57,1.57,0,0,1-.76.2,1.52,1.52,0,0,1-1.47-1.91Z"/></svg>